<?xml version="1.0" encoding="utf-8"?>
<!-- Designed by Vexels.com - 2020 All Rights Reserved - https://vexels.com/terms-and-conditions/  -->
<svg version="1.1" id="Layer_1" xmlns="http://www.w3.org/2000/svg" xmlns:xlink="http://www.w3.org/1999/xlink" x="0px" y="0px"
	 viewBox="0 0 1200 1200" enable-background="new 0 0 1200 1200" xml:space="preserve">
<g>
	<ellipse fill="#D3E4ED" cx="610.638" cy="1100.083" rx="357.517" ry="49.917"/>
	<g>
		<g>
			<g>
				<path fill="#31353E" d="M848.297,1099.505c-0.246,0.025-0.771-2.79-1.631-8.675c-0.859-5.885-2.052-14.84-3.619-27.096
					c-3.118-24.514-7.792-62.228-13.87-115.042c-6.079-52.813-9.926-90.612-11.708-115.262c-1.802-24.649-1.579-36.145-0.029-36.304
					c1.55-0.158,4.09,11.057,7.304,35.561c3.234,24.503,7.101,62.299,11.816,115.252c4.714,52.953,7.756,90.833,9.653,115.472
					c0.942,12.32,1.581,21.332,1.929,27.269C848.49,1096.617,848.544,1099.48,848.297,1099.505z"/>
			</g>
			<g>
				<path fill="#31353E" d="M718.284,1102.115c-0.248,0.007-0.557-2.659-0.956-8.216c-0.395-5.557-0.89-14.005-1.503-25.561
					c-1.225-23.113-2.977-58.661-5.354-108.391c-2.395-49.729-3.922-85.274-4.338-108.416c-0.439-23.14,0.195-33.875,1.511-33.939
					c1.301-0.063,3.003,10.561,4.681,33.656c1.685,23.094,3.323,58.661,4.667,108.455c1.326,49.794,1.729,85.396,1.862,108.546
					c0.055,11.576,0.034,20.039-0.065,25.61C718.695,1099.429,718.532,1102.108,718.284,1102.115z"/>
			</g>
			<g>
				<path fill="#31353E" d="M751.473,1085.799c-0.247,0.014-0.64-2.641-1.211-8.182c-0.568-5.542-1.326-13.97-2.299-25.502
					c-1.945-23.064-4.804-58.539-8.73-108.17c-3.944-49.629-6.578-85.109-7.715-108.227c-1.16-23.115-0.861-33.865,0.453-33.969
					c1.298-0.103,3.331,10.462,5.728,33.494c2.404,23.03,5.15,58.529,8.046,108.255c2.878,49.728,4.39,85.3,5.244,108.435
					c0.416,11.568,0.659,20.028,0.734,25.599C751.801,1083.103,751.721,1085.785,751.473,1085.799z"/>
			</g>
			<g>
				<path fill="#31353E" d="M590.621,1074.976c-0.244-0.042-0.053-2.59,0.549-7.855c0.635-5.259,1.601-13.248,2.921-24.176
					c0.639-5.464,1.365-11.662,2.179-18.621c0.745-6.967,1.666-14.68,2.527-23.197c0.917-8.509,1.828-17.814,2.827-27.926
					c0.474-5.058,0.968-10.32,1.481-15.789c0.485-5.469,0.988-11.146,1.509-17.032c0.493-5.887,0.968-11.564,1.425-17.035
					c0.438-5.471,0.859-10.735,1.264-15.795c0.789-10.12,1.514-19.427,2.177-27.946c0.711-8.514,1.271-16.247,1.927-23.208
					c0.579-6.966,1.196-13.166,1.784-18.629c0.571-5.464,1.161-10.19,1.762-14.203c0.585-4.014,1.161-7.317,1.758-9.933
					c1.187-5.232,2.401-7.719,3.539-7.665c1.138,0.054,2.09,2.646,2.731,7.987c0.317,2.671,0.571,6.029,0.709,10.1
					c0.121,4.07,0.146,8.853,0.065,14.375c-0.099,5.521-0.353,11.777-0.707,18.797c-0.431,7.015-0.903,14.798-1.666,23.355
					c-0.707,8.562-1.65,17.9-2.746,28.046c-0.592,5.068-1.207,10.34-1.847,15.819c-0.704,5.471-1.434,11.148-2.191,17.035
					c-0.821,5.878-1.614,11.547-2.377,17.009c-0.819,5.453-1.606,10.701-2.364,15.745c-1.588,10.078-3.081,19.337-4.553,27.795
					c-1.416,8.466-2.865,16.122-4.1,23.032c-1.321,6.895-2.498,13.036-3.536,18.45c-1.094,5.401-2.041,10.076-2.846,14.05
					c-0.832,3.969-1.553,7.23-2.133,9.818C591.523,1072.552,590.865,1075.019,590.621,1074.976z"/>
			</g>
			<g>
				<path fill="#31353E" d="M705.012,941.487c-0.117,0.984-14.388,0.098-47.398-3.824c-33.01-3.922-47.092-6.403-46.975-7.387
					c0.117-0.984,14.388-0.098,47.398,3.824C691.047,938.021,705.129,940.503,705.012,941.487z"/>
			</g>
			<g>
				<path fill="#31353E" d="M826.595,920.761c0.183,0.974-16.168,4.872-54.588,12.109c-38.42,7.238-55.068,9.557-55.252,8.583
					c-0.183-0.974,16.168-4.872,54.588-12.109C809.763,922.106,826.412,919.787,826.595,920.761z"/>
			</g>
			<path fill="#EB545D" d="M745.441,825.148c40.77-2.698,79.293-13.533,100.999-46.198c7.849-9.914,13.583-21.342,18.523-32.993
				c25.257-59.569,30.639-125.651,30.845-190.385c0.068-21.258-0.422-42.773-5.939-63.299
				c-5.518-20.525-16.579-40.227-33.993-52.339c-19.086-13.275-44.386-16.064-66.734-9.724
				c-22.348,6.34-41.761,21.161-56.056,39.524c-8.914,11.45-16.006,24.325-20.927,37.99c-6.475,17.981-9.144,37.068-13.018,55.787
				c-6.103,29.491-15.28,58.341-27.333,85.927c-4.569,10.458-9.698,20.947-17.737,29.031c-8.061,8.106-18.514,13.267-28.111,19.465
				c-15.998,10.332-30.166,24.174-38.396,41.385c-11.557,24.169-10.296,66.941,18.471,78.749c9.893,4.061,20.867,4.314,31.555,4.51
				C667.675,823.13,707.53,827.657,745.441,825.148z"/>
			<ellipse fill="#31353E" cx="846.726" cy="1090.497" rx="11.252" ry="11.288"/>
			<ellipse fill="#31353E" cx="718.284" cy="1101.785" rx="11.252" ry="11.288"/>
			<ellipse fill="#31353E" cx="589.442" cy="1074.976" rx="11.252" ry="11.288"/>
			<ellipse fill="#31353E" cx="750.158" cy="1082.084" rx="9.346" ry="9.376"/>
		</g>
		<g>
			<path fill="#683E48" d="M598.481,987.057c2.486,22.109,4.972,44.218,7.458,66.327c1.84,16.36,3.679,32.719,5.519,49.079
				c0.186,1.651,0.348,3.427-0.464,4.876c-1.061,1.893-3.394,2.591-5.503,3.102c-4.863,1.178-9.751,2.254-14.648,3.284
				c-34.741,7.305-69.969,12.297-105.372,14.932c-6.466,0.481-13.253,0.83-19.139-1.889c-0.461-0.213-0.943-0.472-1.171-0.926
				c-0.45-0.898,0.323-1.905,1.053-2.594c7.025-6.626,15.496-11.487,23.941-16.172c14.981-8.31,30.157-16.267,45.512-23.863
				c1.685-0.833,3.438-1.716,4.554-3.229c1.369-1.856,1.555-4.362,2.813-6.295c0.884-1.358,2.246-2.354,3.12-3.719
				c1.514-2.365,1.324-5.398,1.042-8.192c-2.235-22.15-6.896-44.053-13.874-65.193c-0.746-2.26-1.5-4.821-0.388-6.926
				c0.826-1.565,2.493-2.469,4.08-3.251c14.956-7.365,31.335-11.829,47.959-13.071"/>
			<path fill="#683E48" d="M469.256,962.52c-0.406,22.245-0.813,44.489-1.219,66.734c-0.301,16.46-0.601,32.92-0.902,49.38
				c-0.03,1.661-0.1,3.443-1.093,4.775c-1.297,1.739-3.701,2.128-5.859,2.361c-4.975,0.537-9.961,0.968-14.951,1.353
				c-35.396,2.731-70.973,3.105-106.419,1.12c-6.474-0.363-13.248-0.899-18.732-4.359c-0.429-0.271-0.874-0.591-1.04-1.07
				c-0.33-0.948,0.568-1.847,1.381-2.435c7.826-5.658,16.857-9.377,25.838-12.925c15.933-6.294,32.015-12.213,48.226-17.75
				c1.779-0.608,3.632-1.255,4.934-2.61c1.599-1.663,2.108-4.123,3.607-5.877c1.053-1.232,2.533-2.042,3.576-3.282
				c1.808-2.149,2.014-5.181,2.097-7.987c0.661-22.252-1.116-44.576-5.289-66.443c-0.446-2.338-0.861-4.975,0.515-6.917
				c1.023-1.444,2.792-2.125,4.468-2.694c15.786-5.36,32.605-7.659,49.251-6.732"/>
			<path fill="#31353E" d="M812.645,621.215c-2.413-12.956-18.344-11.315-33.946-7.638c-1.939-4.677-6.699-7.837-11.21-10.402
				c-40.634-23.11-88.052-34.119-134.712-31.276l-17.734,3.983c-5.053,10.922-10.106,21.845-15.159,32.767
				c-65.283-0.168-130.864-5.585-193.944,13.464c-9.318,2.814-18.914,6.411-25.837,14.279c-7.131,8.104-10.482,19.701-12.432,31.066
				c-5.025,29.286-2.353,59.486,1.308,88.937c8.349,67.176,21.781,133.937,21.049,201.929c-0.089,8.247-0.277,17.014,3.345,24.041
				c5.467,10.606,17.335,13.363,27.849,15.12c11.106,1.856,22.424,3.711,33.526,1.545c11.103-2.166,20.081-5.184,25.416-16.823
				c4.303-9.389,1.519-28.404,1.511-39.008c-0.034-45.554,2.169-89.361,1.457-133.59c14.675,62.958,32.937,125.26,38.681,189.935
				c0.736,8.286,1.425,17.104,5.732,23.797c6.5,10.1,18.584,11.684,29.221,12.4c11.236,0.756,22.683,1.49,33.514-1.792
				c10.831-3.281,21.148-11.277,25.293-23.491c3.343-9.852,2.328-21.012,1.26-31.654c-6.813-67.911-13.656-136.022-27.401-202.632
				c-0.573-2.776-0.994-6.2,0.849-7.987c0.953-0.924,2.267-1.111,3.505-1.265c24.036-2.989,47.958-7.038,71.7-12.136
				c42.073-9.035,85.579-8.469,125.561-25.904c4.251-1.854,8.554-3.863,11.991-7.318c3.935-3.957,6.446-9.531,8.36-15.217
				C817.799,687.326,817.572,647.668,812.645,621.215z"/>
			<path fill="#83C3B8" d="M615.734,278.296c-58.248,20.915-91.238,84.381-146.824,111.591c-6.214,3.042-12.762,5.626-19.64,6.376
				c-5.972,0.652-12.004-0.097-17.938-1.033c-31.183-4.914-62.061-15.31-87.191-34.414c-5.213-3.963-10.543-8.453-17.041-9.265
				c-3.453-0.431-6.974,0.241-10.234,1.458c-15.65,5.843-24.352,24.135-22.445,40.731c0.659,5.737,2.437,11.46,5.933,16.056
				c3.746,4.926,9.178,8.24,14.486,11.422c25.749,15.438,51.942,30.648,80.443,40.086c28.501,9.438,59.793,12.811,88.574,4.265
				c26.605-7.899,49.177-25.234,72.103-40.875c17.43-11.891,35.409-22.976,53.861-33.208c4.994-2.769,10.073-5.511,14.332-9.315
				c10.486-9.364,14.65-23.837,17.013-37.696c2.74-16.066,3.659-32.932-1.619-48.351c-2.193-6.408-5.743-12.782-11.666-16.065"/>
			<path fill="#019798" d="M770.809,324.794c7.071,11.605,12.256,24.314,17.58,37.768c21.494,54.314,36.259,112.842,40.45,171.21
				c2.037,28.369-1.051,56.733-2.048,85.076c-0.109,3.114-0.275,6.409-2.011,8.997c-1.168,1.74-2.94,2.981-4.762,4.016
				c-16.149,9.17-36.265,4.325-54.261-0.262c-48.527-12.369-97.976-21.116-147.801-26.144c-4.004-0.404-8.18-0.841-11.568-3.012
				c-9.317-5.969-7.12-19.846-4.78-30.661c14.074-65.033-8.629-131.632-15.803-197.783c-1.379-12.718-2.174-25.651,0.085-38.242
				c4.076-22.711,17.959-42.799,35.297-58.024c22.189-19.486,48.875-32.119,75.06-14.438c18.28,12.343,38.053,22.764,54.658,37.442
				C759.163,308.035,765.515,316.104,770.809,324.794z"/>
			<path fill="#31353E" d="M674.173,266.764c12.377,4.506,26.4,5.02,39.124,1.436c8.055-2.269,16.853-8.597,14.671-16.13
				c11.073-1.805,22.815-3.907,31.035-11.013c8.22-7.106,10.542-21.036,1.664-27.426c7.757-3.788,15.288-8.325,20.782-14.656
				c5.493-6.331,8.743-14.711,7.044-22.679c-1.699-7.969-9.122-15.037-17.883-15.363c4.573-8.519,6.426-18.773,2.565-27.589
				s-14.459-15.347-24.461-13.183c4.079-12.065-0.101-26.172-10.257-34.618c-10.156-8.445-25.746-10.778-38.256-5.724
				c-7.258-12.46-18.96-23.345-33.716-27.036c-14.755-3.691-32.472,1.372-39.855,13.769C611.945,60.441,598.393,50.02,582.296,50
				c-9.242-0.011-18.126,3.54-25.814,8.291c-5.755,3.556-11.122,7.949-14.32,13.631c-3.198,5.682-3.927,12.832-0.598,18.449
				c-11.362,3.612-21.552,11.239-26.098,21.539c-4.546,10.3-2.601,23.221,6.066,30.925c-6.743,4.008-12.125,10.93-11.475,18.328
				s9.277,13.968,16.749,11.29c-0.659,5.765,3.48,11.697,9.425,13.509c4.262,1.298,9.339,0.749,12.801,3.392
				c6.987,5.332,0.121,16.151,3.005,24.1c1.189,3.276,3.982,5.799,6.681,8.186c6.199,5.484,12.397,10.969,18.596,16.453
				c5.959,5.273,12.032,10.621,19.377,14.081c8.88,4.183,18.996,5.326,28.755,7.181c12.496,2.375,24.712,6.013,36.361,10.828"/>
			<path fill="#C35C52" d="M237.767,301.704c-2-0.603-4.718-0.894-5.659,0.971c-0.524,1.037-0.184,2.298,0.311,3.35
				c4.25,9.022,17.734,10.688,21.775,19.806c2.692,6.075,0.125,13.036-1.97,19.342c-2.095,6.305-3.456,13.989,0.928,18.981
				c1.743,1.985,4.165,3.219,6.525,4.407c14.969,7.531,58.178,36.339,65.862,4.945c5.773-23.587-27.066-42.81-43.246-52.311
				C268.292,312.969,253.317,306.39,237.767,301.704z"/>
			<path fill="#83C3B8" d="M612.502,353.479c0.19,6.318,0.83,12.744,3.322,18.552c2.492,5.808,7.087,10.977,13.116,12.873
				c5.323,1.674,11.169,0.656,16.35-1.416c15.235-6.093,25.521-20.336,33.777-34.516c11.273-19.361,20.589-40.838,20.079-63.235
				c-0.196-8.635-3.124-18.764-11.339-21.433c-5.325-1.73-11.091,0.36-16.14,2.781c-15.615,7.487-27.447,18.416-39.661,30.382
				c-7.876,7.716-14.456,13.639-16.96,24.805C612.775,332.407,612.19,343.122,612.502,353.479z"/>
			<path fill="#C35C52" d="M687.909,286.575c-3.723,16.678-10.988,32.483-20.633,46.591c-5.174,7.576-11.392,14.953-19.845,18.518
				c-3.876,1.632-8.309,2.228-12.491,1.659c-3.482-0.461-6.78-1.723-9.437-3.843c-1.115-0.899-2.124-1.948-2.974-3.153
				c-2.818-3.985-3.624-9.016-4.2-13.866c-1.219-10.286-1.727-20.653-1.526-31.007c0.226-11.721,1.35-23.421,3.367-34.962
				c0.852-4.899,1.868-9.768,3.04-14.596c2.202-9.062,3.869-24.411,14.995-26.805c11.091-2.382,17.834,9.064,24.964,15.216
				c8.9,7.671,20.97,13.859,24.945,25.693C690.328,272.6,689.419,279.801,687.909,286.575z"/>
			<path fill="#683E48" d="M653.574,323.941c-3.965,6.805-8.528,13.39-14.582,18.425c-3.931,3.269-8.567,5.842-13.488,7.134
				c-1.115-0.899-2.124-1.948-2.974-3.153c-2.818-3.985-3.624-9.016-4.2-13.866c-1.219-10.286-1.727-20.653-1.526-31.007
				c4.835-6.129,10.572-11.577,16.433-16.776c9.585-8.5,20.174-16.761,32.758-19.172l6.875,2.633
				C670.124,287.768,663.529,306.831,653.574,323.941z"/>
			<path fill="#C35C52" d="M687.59,213.168c-0.424,1.633-0.837,3.273-1.22,4.917c-0.196,0.829-0.385,1.659-0.561,2.491
				c-3.678,17.21-3.736,35.24-12.121,51.239c-6.841,13.059-56.616,89.538-99.541,23.423c-4.474-6.891-21.005-37.774-19.084-58.902
				c0.368-4.045,1.178-15.462,2.071-17.921c3.156-8.692,0.847-18.326,0.925-27.56c0.025-3.046,0.036-6.23,0.109-9.474
				c0.008-0.409,0.019-0.818,0.03-1.226c0.331-11.741,1.627-24.183,7.67-33.933c5.707-9.221,18.888-17.468,29.478-20.981
				c10.059-3.337,21.061-4.078,31.827-3.18c9.606,0.801,19.179,2.9,27.934,6.77c18.223,8.054,31.698,24.199,36.577,41.987
				C695.735,185.588,691.218,199.202,687.59,213.168z"/>
			<path fill="#C35C52" d="M683.874,203.933c3.138-3.428,8.18-5.46,12.562-3.913c5.576,1.969,7.936,8.588,8.433,14.48
				c0.712,8.427-0.974,17.136-5.336,24.381c-4.362,7.245-11.482,12.915-19.69,14.951c-2.563,0.636-5.502,0.852-7.627-0.715
				c-2.963-2.185-2.885-6.577-2.354-10.219C671.673,230.495,675.015,213.609,683.874,203.933z"/>
			<path fill="#83C3B8" d="M746.028,335.378c17.407-7.104,29.716,2.771,34.585,11.559c44.348,80.03,68.988,170.888,71.149,262.359
				c0.248,10.5,0.08,21.522-4.977,30.728c-6.823,12.42-20.998,18.789-34.652,22.579c-43.18,11.987-89.793,7.544-133.448,0.54
				c-6.933-1.112-14.125-2.542-18.609-8.399c-4.298-5.615-6.304-12.912-6.892-19.874c-1.097-13.001,8.638-24.945,20.36-30.674
				c11.722-5.729,25.133-6.599,38.145-7.557c13.012-0.958,26.464-2.235,37.84-8.623c1.86-1.044,3.701-2.27,4.867-4.056
				c1.434-2.194,1.667-4.937,1.826-7.553c3.031-49.852-6.01-99.678-18.114-148.133c-3.955-15.834-8.27-31.794-8.355-48.114
				S732.461,345.16,746.028,335.378"/>
			<path fill="#C35C52" d="M620.378,623.731c-13.457,6.63-24.632,17.018-35.595,27.258c-2.089,1.951-4.358,4.367-4,7.203
				c1.411,0.309,2.866,0.414,4.306,0.31c0.646,1.209-0.615,2.563-0.734,3.929c-0.197,2.254,2.667,3.511,4.923,3.345
				s4.629-1.01,6.695-0.088c-1.033,4.142,2.497,8.776,6.765,8.881c2.661,0.065,5.111-1.333,7.403-2.688
				c-1.329,3.58,2.365,7.411,6.169,7.741c3.805,0.33,7.383-1.656,10.684-3.576c4.703-2.735,9.406-5.47,14.109-8.205
				c3.237-1.882,6.488-3.771,9.964-5.164c10.602-4.247,23.151-3.845,32.353-10.61c5.414-3.98,9.07-10.27,9.848-16.944
				c1.097-9.406-2.672-20.57-13.054-21.208c-12.891-0.792-26.458,0.081-39.087,2.774
				C633.968,618.217,626.954,620.492,620.378,623.731z"/>
			<path fill="#31353E" d="M674.267,225.912c-3.196-0.196-6.58-1.441-8.218-4.192c-1.021-1.715-1.232-3.779-1.348-5.772
				c-0.331-5.673-0.077-11.381,0.755-17.002c-3.365,3.684-9.515,3.839-13.731,1.171s-6.641-7.539-7.483-12.457
				c-0.842-4.918-0.298-9.955,0.247-14.914c-4.623,3.525-10.079,6.428-15.892,6.351c-5.813-0.077-11.86-3.944-12.815-9.678
				c-3.259,3.991-6.925,7.803-11.518,10.137c-4.593,2.335-10.279,3-14.88,0.679s-7.539-8.069-5.744-12.898
				c-4.69,6.686-12.325,11.223-20.439,12.147c-2.971,0.338-6.078,0.194-8.799-1.045c-3.966-1.806-6.653-5.786-7.703-10.016
				c-1.05-4.23-0.641-8.695,0.264-12.958c1.744-8.219,5.323-16.042,10.402-22.734c8.653-11.402,21.491-19.269,35.254-23.2
				c13.763-3.931,28.417-4.096,42.566-1.928c23.272,3.567,46.603,14.363,59.507,34.057c10.098,15.412,12.483,34.888,8.708,52.71
				C700.192,209.515,692.638,227.038,674.267,225.912z"/>
			<g>
				<path fill="#E8E5DE" d="M482.869,806.109c-0.272,0.097-1.268-1.798-2.891-5.923c-1.62-4.124-3.811-10.504-6.171-19.411
					c-2.352-8.906-4.855-20.345-7.043-34.501c-1.106-7.073-2.124-14.836-3.128-23.256c-0.499-4.219-1.026-8.677-1.062-13.414
					c-0.035-4.711,0.356-9.801,2.311-14.826c0.971-2.494,2.356-4.853,4.089-6.829c1.718-1.987,3.714-3.615,5.773-4.928
					c4.132-2.637,8.386-4.251,12.286-5.85c7.983-3.254,15.616-5.412,22.62-7.058c14.046-3.222,25.637-4.653,34.713-5.901
					c18.173-2.325,26.511-3.6,26.647-2.993c0.132,0.571-8.09,2.938-26.174,6.05c-9.015,1.637-20.507,3.385-34.236,6.761
					c-6.851,1.723-14.243,3.905-21.943,7.106c-3.92,1.629-7.948,3.216-11.546,5.537c-3.607,2.302-6.566,5.49-8.158,9.709
					c-1.643,4.194-2.057,8.777-2.029,13.19c0.017,4.431,0.498,8.752,0.967,12.947c0.946,8.418,1.869,16.123,2.859,23.164
					c1.954,14.081,4.116,25.453,6.062,34.363c1.953,8.909,3.672,15.359,4.784,19.615
					C482.713,803.918,483.166,806.004,482.869,806.109z"/>
			</g>
			<g>
				<path fill="#E8E5DE" d="M593.572,760.4c-0.611-0.087-0.998-1.039-1.366-2.922c-0.373-1.883-0.736-4.698-1.45-8.501
					c-0.373-1.891-0.692-3.512-0.962-4.881c-0.241-1.375-0.394-2.513-0.404-3.462c-0.034-1.888,0.482-3.03,1.464-3.421
					c0.953-0.38,2.192,0.102,3.353,1.861c1.149,1.745,2.214,4.803,2.464,9.21c0.053,1.1,0.052,2.122,0.011,3.066
					c-0.054,0.944-0.128,1.808-0.247,2.594c-0.218,1.573-0.548,2.831-0.882,3.802C594.867,759.688,594.152,760.483,593.572,760.4z"
					/>
			</g>
			<g>
				<path fill="#E8E5DE" d="M618.72,737.917c1.306,0.541,2.145,1.925,1.862,4.158c-0.274,2.22-1.705,5.295-4.706,8.841
					c-0.753,0.882-1.489,1.667-2.196,2.368c-0.715,0.694-1.389,1.313-2.035,1.848c-1.282,1.079-2.413,1.857-3.344,2.417
					c-1.875,1.107-2.955,1.349-3.371,0.933c-0.434-0.433-0.145-1.473,0.716-3.352c0.863-1.876,2.275-4.603,4.133-8.303
					c0.46-0.928,0.889-1.781,1.298-2.561c0.4-0.785,0.795-1.488,1.167-2.127c0.757-1.27,1.472-2.257,2.202-2.972
					C615.886,737.734,617.391,737.366,618.72,737.917z"/>
			</g>
			<g>
				<path fill="#31353E" d="M606.594,254.789c0.149-0.053,0.662,0.576,0.806,2.181c0.154,1.571-0.405,4.201-2.67,6.684
					c-1.125,1.228-2.659,2.415-4.693,3.206c-1.981,0.746-4.321,1.127-6.825,1.109c-2.508-0.005-5.172-0.378-7.976-0.834
					c-1.432-0.239-2.987-0.517-4.607-1.213c-0.805-0.352-1.632-0.827-2.374-1.512c-0.745-0.677-1.366-1.589-1.703-2.603
					c-0.674-2.064-0.308-3.942,0.035-5.502c0.384-1.565,0.793-2.96,1.207-4.343c0.828-2.742,1.68-5.218,2.448-7.47
					c1.551-4.497,2.706-8.152,3.517-11.079c1.609-5.849,2.216-8.631,2.659-8.564c0.353,0.048,0.473,2.936-0.652,9.035
					c-0.566,3.044-1.55,6.87-2.969,11.437c-0.702,2.285-1.491,4.755-2.264,7.448c-0.382,1.336-0.784,2.774-1.121,4.186
					c-0.317,1.393-0.487,2.805-0.103,3.908c0.357,1.106,1.291,1.869,2.484,2.402c1.195,0.529,2.563,0.812,3.916,1.052
					c2.778,0.492,5.284,0.891,7.549,0.964c2.264,0.085,4.27-0.169,5.977-0.705c1.647-0.539,3.002-1.43,4.027-2.374
					c2.068-1.914,2.809-3.953,3.002-5.279C606.473,255.574,606.365,254.847,606.594,254.789z"/>
			</g>
			<g>
				<path fill="#31353E" d="M299.261,368.552c-0.05,0.208-1.682,0.176-4.672-1.292c-1.485-0.734-3.247-1.886-5.193-3.504
					c-0.967-0.814-1.981-1.742-3.035-2.781c-0.527-0.52-1.063-1.068-1.614-1.639l-0.413-0.434c-0.074-0.075-0.064-0.058-0.099-0.09
					c-0.047-0.037-0.091-0.083-0.13-0.102l-0.095,0.172l-0.025,0.041l-0.236,0.276c-0.161,0.183-0.309,0.375-0.49,0.554
					c-0.684,0.743-1.475,1.433-2.352,2.061c-1.753,1.252-3.883,2.252-6.306,2.712c-0.611,0.115-1.215,0.189-1.874,0.237
					c-0.344,0.017-0.732,0.022-1.176-0.051c-0.438-0.072-0.961-0.243-1.414-0.579c-0.455-0.326-0.784-0.773-0.997-1.192
					c-0.212-0.423-0.33-0.829-0.411-1.205c-0.16-0.772-0.176-1.363-0.25-2.026c-0.205-2.613-0.092-5.362,0.275-8.182
					c0.545-4.142,1.464-7.853,2.283-11.249c0.413-1.704,0.854-3.411,1.536-5.019c0.668-1.597,1.625-3.118,2.863-4.271
					c1.224-1.151,2.723-1.989,4.329-2.28c1.636-0.308,3.168,0.071,4.363,0.491c1.22,0.44,2.221,0.892,3.223,1.3
					c0.989,0.417,1.918,0.809,2.788,1.176c6.954,2.964,10.08,4.56,9.935,4.936c-0.145,0.376-3.533-0.54-10.677-3.012
					c-0.892-0.312-1.844-0.646-2.856-1c-1.005-0.347-2.105-0.772-3.165-1.101c-1.071-0.323-2.117-0.504-3.124-0.272
					c-1.022,0.222-2.063,0.818-2.956,1.701c-0.897,0.881-1.6,2.026-2.152,3.399c-0.552,1.365-0.94,2.921-1.329,4.613
					c-0.781,3.4-1.656,7.039-2.17,10.961c-0.348,2.671-0.456,5.212-0.287,7.592c0.057,0.58,0.09,1.228,0.18,1.65
					c0.086,0.456,0.241,0.672,0.286,0.691c0.013,0.04,0.291,0.13,0.766,0.102c0.491-0.031,1.016-0.085,1.507-0.17
					c1.989-0.343,3.783-1.137,5.274-2.144c0.746-0.505,1.425-1.062,2.014-1.664c0.155-0.141,0.293-0.31,0.437-0.464l0.214-0.234
					l0.382-0.513c0.518-0.68,0.99-1.361,1.453-2.021c0.911,1.032,1.791,2.028,2.64,2.989c0.518,0.579,1.016,1.137,1.497,1.675
					c0.969,1.061,1.885,2.008,2.75,2.848c1.738,1.666,3.274,2.899,4.565,3.768C297.912,367.738,299.358,368.255,299.261,368.552z"/>
			</g>
			<g>
				<path fill="#31353E" d="M598.268,646.884c0.182,0.371-0.237,0.954-1.268,1.836c-1.027,0.891-2.678,2.075-4.853,3.891
					c-2.159,1.834-3.607,3.26-4.66,4.121c-1.044,0.867-1.69,1.18-2.025,0.938c-0.318-0.229-0.26-0.977,0.429-2.243
					c0.693-1.255,2.025-3.048,4.377-5.045c2.368-1.978,4.362-2.986,5.716-3.456C597.35,646.462,598.097,646.532,598.268,646.884z"/>
			</g>
			<g>
				<path fill="#31353E" d="M618.231,651.012c0.102,0.404-0.541,0.908-1.958,1.643c-1.411,0.747-3.612,1.718-6.513,3.395
					c-2.885,1.705-4.811,3.146-6.154,4.01c-1.335,0.874-2.089,1.187-2.392,0.9c-0.282-0.266-0.052-1.091,0.998-2.42
					c1.052-1.313,2.941-3.156,6.076-5.007c3.152-1.823,5.684-2.564,7.344-2.837C617.306,650.432,618.138,650.636,618.231,651.012z"
					/>
			</g>
			
				<ellipse transform="matrix(0.0879 -0.9961 0.9961 0.0879 348.739 828.2648)" fill="#31353E" cx="626.652" cy="223.7" rx="5.299" ry="3.463"/>
			
				<ellipse transform="matrix(0.0879 -0.9961 0.9961 0.0879 307.6052 769.7776)" fill="#31353E" cx="574.147" cy="216.918" rx="5.299" ry="3.463"/>
			<g>
				<path fill="#31353E" d="M565.998,200.328c-0.31-0.501,0.006-1.391,1.34-2.451c1.322-1.046,3.72-2.19,7.171-2.756
					c1.711-0.274,3.191-0.391,4.565-0.3c1.353,0.088,2.515,0.414,3.354,0.858c0.844,0.452,1.352,0.986,1.574,1.431
					c0.223,0.451,0.19,0.794,0.01,1.031c-0.389,0.493-1.186,0.464-2.428,0.514c-0.637,0.028-1.421,0.071-2.457,0.196
					c-1.016,0.121-2.354,0.337-3.9,0.585c-3.07,0.508-5.144,1.023-6.602,1.254C567.177,200.928,566.32,200.854,565.998,200.328z"/>
			</g>
			<g>
				<path fill="#31353E" d="M641.427,209.973c-0.282,0.118-0.625,0.019-1.052-0.205c-0.43-0.227-0.953-0.57-1.701-1.028
					c-0.739-0.449-1.767-1.081-3-1.797c-1.24-0.71-2.714-1.53-4.518-2.305c-3.614-1.546-6.38-2.171-8.196-2.742
					c-1.822-0.546-2.736-1.029-2.747-1.651c-0.013-0.584,0.904-1.204,3.019-1.43c2.089-0.199,5.45,0.006,9.668,1.811
					c2.101,0.904,3.762,1.978,5.058,2.996c1.294,1.031,2.218,1.986,2.889,2.918c0.662,0.926,0.969,1.784,1.005,2.382
					C641.891,209.525,641.701,209.86,641.427,209.973z"/>
			</g>
			<g>
				<path fill="#31353E" d="M634.277,267.954c0.101,0.174-0.247,0.585-1.091,1.249c-0.424,0.329-0.965,0.734-1.649,1.183
					c-0.691,0.433-1.515,0.926-2.478,1.482c-0.97,0.54-2.099,1.098-3.365,1.732c-1.296,0.563-2.711,1.257-4.336,1.854
					c-3.22,1.269-7.135,2.554-11.818,3.574c-4.682,1.02-8.778,1.479-12.234,1.665c-1.726,0.133-3.301,0.091-4.714,0.117
					c-1.415-0.05-2.674-0.088-3.781-0.175c-1.106-0.105-2.061-0.211-2.87-0.317c-0.808-0.123-1.469-0.266-1.991-0.39
					c-1.044-0.253-1.531-0.482-1.512-0.682c0.019-0.2,0.542-0.354,1.598-0.45c0.529-0.051,1.19-0.074,1.991-0.107
					c0.802-0.05,1.742-0.089,2.824-0.117c1.081-0.053,2.307-0.113,3.683-0.18c1.372-0.131,2.896-0.176,4.565-0.379
					c3.341-0.324,7.289-0.848,11.819-1.835c4.53-0.986,8.338-2.152,11.512-3.247c1.602-0.51,3.007-1.102,4.309-1.554
					c1.279-0.511,2.419-0.966,3.425-1.368c0.996-0.425,1.867-0.78,2.617-1.068c0.742-0.303,1.353-0.557,1.855-0.731
					C633.637,267.857,634.176,267.779,634.277,267.954z"/>
			</g>
			<g>
				<path fill="#31353E" d="M467.933,437.407c-1.837-0.083-3.58-0.535-5.022-1.262c-0.725-0.364-1.36-0.798-1.923-1.301
					c-0.581-0.504-1.069-1.076-1.444-1.726c-0.394-0.65-0.725-1.376-0.916-2.2c-0.27-0.818-0.341-1.744-0.461-2.777
					c-0.064-1.041-0.12-2.192-0.102-3.501c-0.021-0.647-0.023-1.333-0.009-2.065c-0.023-0.72-0.036-1.482-0.038-2.293
					c-0.037-0.814-0.073-1.598-0.108-2.354c-0.064-0.773-0.125-1.516-0.184-2.231c-0.168-1.431-0.333-2.799-0.578-4.033
					c-0.198-1.266-0.52-2.362-0.763-3.409c-0.306-1-0.584-1.92-0.876-2.708c-0.306-0.776-0.589-1.451-0.84-2.023
					c-0.264-0.56-0.511-1.004-0.7-1.365c-0.384-0.718-0.582-1.061-0.512-1.132c0.07-0.072,0.402,0.127,1.119,0.536
					c0.367,0.208,0.824,0.467,1.377,0.781c0.558,0.335,1.213,0.729,1.968,1.183c0.76,0.468,1.603,1.033,2.59,1.669
					c0.923,0.683,2.041,1.409,3.146,2.339c1.153,0.901,2.339,1.972,3.615,3.205c0.61,0.63,1.244,1.301,1.898,2.015
					c0.619,0.731,1.252,1.508,1.902,2.334c0.606,0.843,1.185,1.674,1.723,2.494c0.501,0.832,0.967,1.651,1.396,2.451
					c0.799,1.619,1.438,3.168,1.824,4.639c0.442,1.458,0.576,2.845,0.647,4.085c-0.006,1.254-0.131,2.377-0.427,3.362
					c-0.313,0.988-0.747,1.832-1.283,2.533c-0.553,0.702-1.227,1.261-1.958,1.685C471.526,437.186,469.77,437.49,467.933,437.407z"
					/>
			</g>
			<g>
				<path fill="#31353E" d="M809.967,605.023c-0.703,0.672-1.758,0.936-3.065,0.741c-0.658-0.093-1.362-0.32-2.154-0.639
					c-0.814-0.296-1.692-0.71-2.631-1.256c-0.96-0.522-2.038-1.109-3.168-1.864c-0.596-0.336-1.212-0.705-1.851-1.109
					c-0.318-0.204-0.644-0.414-0.978-0.629c-0.344-0.2-0.696-0.404-1.056-0.613c-1.412-0.892-3.014-1.767-4.76-2.76
					c-0.895-0.447-1.824-0.927-2.793-1.439c-0.997-0.457-2.032-0.931-3.106-1.423c-1.107-0.438-2.175-0.861-3.204-1.268
					c-1.058-0.354-2.076-0.695-3.054-1.023c-1.987-0.563-3.847-1.084-5.585-1.403c-0.435-0.092-0.86-0.181-1.275-0.269
					c-0.418-0.062-0.827-0.122-1.225-0.181c-0.804-0.116-1.568-0.227-2.292-0.331c-1.453-0.107-2.767-0.238-3.927-0.277
					c-1.164-0.005-2.172-0.01-3.031-0.014c-0.858,0.029-1.564,0.095-2.13,0.123c-1.131,0.066-1.686,0.079-1.709-0.019
					c-0.023-0.098,0.485-0.299,1.567-0.676c0.542-0.183,1.225-0.435,2.068-0.692c0.855-0.227,1.86-0.494,3.021-0.802
					c1.173-0.279,2.521-0.514,4.049-0.819c0.77-0.1,1.582-0.205,2.436-0.316c0.431-0.053,0.873-0.108,1.326-0.164
					c0.454-0.029,0.919-0.058,1.395-0.088c1.915-0.163,4.012-0.153,6.318-0.092c1.15,0.09,2.347,0.184,3.59,0.282
					c1.24,0.185,2.528,0.378,3.862,0.578c1.318,0.287,2.597,0.572,3.829,0.867c1.209,0.359,2.374,0.718,3.494,1.077
					c2.198,0.817,4.207,1.645,5.945,2.607c0.438,0.234,0.866,0.463,1.283,0.686c0.406,0.243,0.793,0.498,1.173,0.743
					c0.757,0.493,1.466,0.976,2.127,1.448c1.265,1.03,2.365,1.978,3.233,2.924c0.849,0.972,1.52,1.872,2.021,2.693
					c0.481,0.846,0.769,1.64,0.927,2.325C810.949,603.331,810.67,604.351,809.967,605.023z"/>
			</g>
			<g>
				<path fill="#31353E" d="M802.655,574.888c-0.152,0.657-0.637,1.211-1.435,1.594c-0.797,0.368-1.912,0.605-3.363,0.654
					c-0.727,0.031-1.542,0.041-2.445-0.018c-0.909-0.005-1.904-0.12-3.009-0.176c-1.107-0.085-2.315-0.177-3.629-0.278
					c-0.662-0.04-1.351-0.082-2.067-0.125c-0.721-0.028-1.469-0.057-2.245-0.088c-0.781-0.009-1.534-0.017-2.26-0.025
					c-0.73,0.013-1.432,0.026-2.108,0.038c-1.351,0.061-2.607,0.116-3.752,0.228c-1.155,0.074-2.187,0.241-3.138,0.339
					c-0.936,0.15-1.781,0.271-2.521,0.404c-1.477,0.279-2.563,0.51-3.275,0.675c-0.719,0.15-1.08,0.194-1.12,0.102
					c-0.04-0.092,0.244-0.313,0.868-0.713c0.62-0.414,1.595-0.969,2.963-1.698c0.686-0.358,1.48-0.734,2.374-1.172
					c0.909-0.385,1.91-0.871,3.054-1.288c1.135-0.456,2.401-0.88,3.796-1.321c0.705-0.196,1.438-0.4,2.199-0.612
					c0.774-0.175,1.576-0.358,2.409-0.547c0.844-0.146,1.657-0.286,2.441-0.421c0.792-0.092,1.554-0.181,2.286-0.266
					c1.471-0.112,2.831-0.172,4.075-0.122c1.245,0.01,2.368,0.169,3.376,0.302c1.003,0.187,1.89,0.388,2.656,0.645
					c1.53,0.525,2.584,1.162,3.203,1.857C802.61,573.534,802.807,574.231,802.655,574.888z"/>
			</g>
			<g>
				<path fill="#31353E" d="M736.022,535.985c0.168,0.628-0.755,1.5-2.915,2.579c-1.081,0.534-2.482,1.068-4.203,1.666
					c-1.733,0.538-3.787,1.146-6.201,1.657c-1.203,0.282-2.498,0.52-3.88,0.756c-1.379,0.256-2.853,0.449-4.413,0.65
					c-1.558,0.222-3.214,0.334-4.952,0.501c-1.743,0.103-3.573,0.245-5.495,0.275c-3.843,0.129-8.049,0.027-12.6-0.302
					c-4.55-0.336-9.449-0.935-14.656-1.909c-5.213-0.97-9.959-2.192-14.295-3.407c-4.338-1.22-8.272-2.45-11.864-3.573
					c-3.592-1.122-6.841-2.153-9.779-3.035c-2.936-0.895-5.562-1.637-7.883-2.277c-2.325-0.62-4.345-1.13-6.071-1.53
					c-1.724-0.411-3.156-0.694-4.288-0.952c-2.276-0.442-3.37-0.688-3.358-0.788c0.012-0.1,1.128-0.046,3.456,0.138
					c1.157,0.129,2.622,0.268,4.39,0.511c1.77,0.233,3.845,0.554,6.239,0.961c2.388,0.426,5.096,0.93,8.118,1.561
					c3.026,0.619,6.366,1.36,10.039,2.168c3.672,0.81,7.673,1.699,12.021,2.559c4.349,0.856,9.039,1.694,14.099,2.288
					c5.063,0.6,9.785,0.895,14.152,1.014c4.367,0.111,8.383,0.082,12.051-0.09c1.835-0.052,3.582-0.193,5.247-0.274
					c1.661-0.145,3.246-0.213,4.74-0.371c1.497-0.136,2.914-0.246,4.247-0.398c1.335-0.132,2.593-0.247,3.767-0.388
					c2.358-0.229,4.395-0.485,6.151-0.612c1.744-0.187,3.207-0.252,4.381-0.275C734.614,535.03,735.854,535.356,736.022,535.985z"/>
			</g>
		</g>
	</g>
</g>
</svg>
