<?xml version="1.0" encoding="utf-8"?>
<!-- Designed by Vexels.com - 2020 All Rights Reserved - https://vexels.com/terms-and-conditions/  -->
<svg version="1.1" id="Layer_1" xmlns="http://www.w3.org/2000/svg" xmlns:xlink="http://www.w3.org/1999/xlink" x="0px" y="0px"
	 viewBox="0 0 1200 1200" enable-background="new 0 0 1200 1200" xml:space="preserve">
<g>
	<path fill="#C4464D" d="M650.506,378.02c10.608,10.889,22.626,20.334,33.176,31.279c6.554,6.799,13.477,14.671,22.875,15.606
		c9.917,0.986,18.522-6.103,27.234-10.942c6.935-3.851,14.575-6.43,22.425-7.569c6.477,8.615,2.65,21.221-3.763,29.883
		c-13.091,17.68-36.288,27.288-58.046,24.043c-25.853-3.856-46.173-23.444-69.764-34.699c-3.382-1.614-5.041-5.432-6.167-9.006
		c-3.182-10.102-4.323-20.728-4.066-31.29c0.197-8.127-0.302-23.258,4.247-30.269C627.881,340.837,645.32,372.697,650.506,378.02z"
		/>
	<path fill="#E8E5DE" d="M826.019,272.194v45.781l-0.567,0.676l-43.359,51.573l-39.306,52.256c0,0-28.671,8.788-44.392,10.108
		c-11.024,0.931-19.292-5.248-23.244-9.029c-1.584-1.506-1.855-3.92-0.675-5.76l80.632-125.466c0.893-1.428,2.725-1.964,4.247-1.234
		l27.234,12.926l20.845-34.625c1.126-1.863,3.416-2.678,5.473-1.941l0.272,0.101L826.019,272.194z"/>
	<path fill="#C9C7C2" d="M826.019,272.194v45.781l-0.567,0.676c-2.337-0.039-3.804-2.702-4.643-4.961
		c-1.894-5.085-3.703-10.194-5.434-15.333c-1.405-4.154-2.756-8.362-3.144-12.717c-0.536-6.017,0.776-12.064,0.947-18.081
		L826.019,272.194z"/>
	<polygon fill="#019798" points="666.779,439.816 763.577,289.695 824.159,315.133 824.159,269.726 828.768,269.726 
		828.768,320.401 747.773,438.242 	"/>
	<path fill="#31353E" d="M617.486,93.493c1.639,3.928,2.09,8.234,2.523,12.468c0.263,2.575,0.345,5.617-1.673,7.238
		c-1.432,1.15-3.531,1.142-5.235,0.454c-1.703-0.687-3.102-1.946-4.463-3.181c0.69,5.649,1.353,11.529-0.495,16.911
		c-1.872,5.451-6.374,9.931-11.834,11.775c-2.022,0.683-4.642,0.845-5.91-0.872c-0.707-0.957-0.767-2.226-0.906-3.408
		c-0.988-8.364-7.034-15.094-10.975-22.537c-3.503-6.615-1.711-11.246,0.827-17.81c1.463-3.785,2.458-7.974,4.457-11.525
		c4.635-8.235,15.416-5.398,22.358-1.606C611.148,84.125,615.201,88.269,617.486,93.493z"/>
	<ellipse fill="#D3E4ED" cx="551.353" cy="1131.568" rx="180.121" ry="18.432"/>
	<path fill="#31353E" d="M560.105,1126.255c-0.092,2.204,1.689,4.058,3.961,4.123c30.917,0.875,61.848,1.268,92.778,1.177
		c3.486-0.01,7.314-0.18,10.399-1.521c1.83-0.795,1.622-3.392-0.296-3.959l-48.765-14.426c-5.109-1.511-10.491-3.189-14.024-7.075
		c-4.77-5.248-4.862-12.968-4.698-19.962c0.337-14.315,1.632-31.38,1.969-45.695c0.082-3.477-29.489-3.411-32.694-2.469
		c-9.487,2.786-5.351,10.982-5.691,19.146C562.066,1079.146,561.085,1102.701,560.105,1126.255z"/>
	<path fill="#31353E" d="M498.912,1031.208c9.013,2.071,16.437,0.079,15.648,5.75c-0.258,1.852-1.8,5.718-2.496,7.461
		c-10.725,26.842-14.231,56.364-10.079,84.869c0.285,1.955,0.55,4.14-0.656,5.731c-1.252,1.651-3.599,2.018-5.701,2.226
		c-18.681,1.85-37.577,1.642-56.209-0.62c-1.265-11.95,8.547-21.886,14.489-32.425c8.795-15.6,9.381-33.801,12.876-50.878
		c1.373-6.709,3.56-19.777,6.546-26.356C475.542,1022.091,491.313,1029.461,498.912,1031.208z"/>
	<path fill="#894F58" d="M482.578,634.149c-8.026,30.265-5.238,62.112-12.059,92.615c-3.876,17.335-10.799,33.981-16.042,51.022
		c-8.049,26.162-12.113,53.164-16.154,80.067c-3.253,21.659-6.507,43.317-9.76,64.976c-1.601,10.662-3.205,21.469-1.698,32.142
		c2.005,14.208,9.411,27.398,11.988,41.531c1.721,9.435,1.278,19.229,4.433,28.358c8.201,23.724,43.427,35.96,67.191,23.338
		c14.399-7.648,23.09-21.764,28.408-36.038s7.952-29.308,13.912-43.374c-8.096,24.229-9.639,50.21-4.461,75.079
		c0.973,4.673,2.363,9.604,6.234,12.838c3.594,3.002,8.705,3.994,13.588,4.369c28.452,2.187,56.208-13.182,72.051-34.58
		c15.842-21.398,21.206-47.88,21.227-73.599c0.021-25.72-4.904-51.203-7.931-76.778c-5.494-46.428-4.732-93.251-3.963-139.937
		c0.941-57.171,1.883-114.342,2.824-171.513c0.427-25.961,0.757-52.516-8.475-77.112c-1.326-3.532-2.923-7.118-5.863-9.743
		c-6.921-6.179-18.248-4.906-27.768-3.031c-19.255,3.791-38.343,8.267-57.205,13.415c-8.555,2.335-17.289,4.916-24.196,10.027
		c-9.119,6.747-13.921,17.028-18.036,26.99C493.547,567.029,493.681,590.665,482.578,634.149"/>
	<path fill="#F29681" d="M682.728,409.763c-0.155,4.643-1.313,9.251-3.371,13.416c13.582-2.327,26.19-10.7,39.933-9.688
		c1.448,0.107,3.317,0.834,3.13,2.273c-0.094,0.724-0.716,1.248-1.293,1.696c-3.381,2.624-6.762,5.249-10.142,7.873
		c4.758-0.559,9.516-1.118,14.274-1.677c0.617-0.073,1.296-0.131,1.809,0.221c0.547,0.375,0.726,1.104,0.73,1.768
		c0.022,3.075-2.686,5.488-5.468,6.799c-2.781,1.311-5.901,2.007-8.329,3.895c1.804-0.037,3.609-0.073,5.413-0.11
		c-2.689,5.785-8.276,9.717-14.093,12.337c-12.104,5.451-25.706,6.272-38.96,7.012c-1.663,0.093-3.356,0.183-4.971-0.224
		c-1.931-0.487-3.623-1.655-5.116-2.972c-3.114-2.747-7.587-7.75-7.041-12.291c0.541-4.503,6.109-7.664,9.092-10.554
		C665.816,422.278,672.681,413.578,682.728,409.763z"/>
	<path fill="#E8E5DE" d="M648.082,539.692c-3.975,4.348-10.295,6.093-16.237,7.618c-29.887,7.684-73.946,11.743-106.359,4.853
		c-4.129-0.874-8.069-1.93-11.766-3.177c-1.887-0.639-3.821-1.387-5.122-2.788c-1.591-1.721-1.949-4.105-2.245-6.355
		c-2.095-15.937,10.237-66.629,7.591-84.453c-0.216-1.46-0.532-2.696-0.967-3.678c-5.095-11.543-10.202-23.112-16.595-34.092
		c-4.699-8.072-10.075-15.794-15.117-23.693c-7.372-11.55-14.027-23.49-19.923-35.737c-3.709-7.691-7.117-15.506-10.218-23.42
		c-5.38-13.738-9.859-28.747-5.43-42.827c3.913-12.424,14.092-22.103,22.958-32.267c0.701-0.801,1.39-1.61,2.072-2.419
		c10.811-12.883,18.972-27.626,23.925-43.224c25.373,0.05,47.102,14.789,66.001,30.241c26.582,21.733,50.796,45.912,72.159,72.063
		c3.794,4.641,7.61,11.608,8.465,17.369c1.132,7.603-3.347,16.511-5.107,18.725c-10.491,13.168-3.647,39.299-1.352,53.819
		c2.657,16.591,5.619,33.141,8.238,49.733c0.793,5.026,1.552,10.056,2.265,15.093c1.209,8.569,2.276,17.154,3.108,25.769
		c0.782,8.092,1.402,16.203,1.864,24.318C650.628,527.167,652.68,534.658,648.082,539.692z"/>
	<path fill="#EB545D" d="M595.801,376.985c-0.528,31.139-1.056,62.271-1.584,93.41c-0.132,7.88-0.264,15.752-0.404,23.632
		c-0.722,42.683-1.444,85.359-2.174,128.043c-0.644,38.119-1.304,76.362-6.855,114.077c-0.38,2.616-0.885,5.427-2.779,7.282
		c-1.654,1.622-4.052,2.189-6.327,2.647c-30.899,6.219-63.234,5.178-93.667-3.005c-4.619-1.242-9.627-2.981-11.987-7.142
		c-1.84-3.253-1.607-7.236-1.312-10.962c5.722-71.595,15.768-142.841,30.076-213.224c1.809-8.897,3.688-17.872,5-26.877
		c1.731-11.785,2.5-23.624,0.885-35.402c-0.691-5.038-1.793-9.937-3.23-14.704c-10.294-34.253-37.863-62.24-55.851-94.031
		c-4.712-8.322-8.866-17.258-9.503-26.8c-1.126-16.886,8.765-32.311,18.252-46.332c6.281-9.278,12.561-18.547,18.842-27.824
		c4.332-6.405,8.672-12.818,13.012-19.223c2.189-3.237,4.705-6.708,8.493-7.686c1.623-0.419,3.276-0.287,4.837,0.241
		c2.896,0.97,5.458,3.315,6.925,6.071c0.202,0.381,0.396,0.761,0.567,1.133c3.936,8.315,1.669,14.347,8.439,22.149
		c8.02,9.238,15.985,18.5,23.655,28.026c0.023,0.031,0.047,0.055,0.07,0.086c15.317,19.021,29.757,38.74,43.243,59.088
		c4.472,6.739,8.889,13.664,11.187,21.419C596.08,359.424,595.948,368.29,595.801,376.985z"/>
	<g>
		<path fill="#31353E" d="M551.353,394.157c0.035-0.663,0.835-1.278,2.373-1.781c0.77-0.283,1.727-0.552,2.872-0.832
			c0.573-0.158,1.193-0.312,1.862-0.461c0.666-0.166,1.382-0.344,2.15-0.535c0.766-0.178,1.577-0.424,2.443-0.631
			c0.861-0.241,1.774-0.497,2.74-0.767c1.922-0.589,4.053-1.242,6.381-2.093c4.657-1.685,10.126-4.009,16.41-7.198
			c6.295-3.199,11.707-6.171,16.386-8.508c4.674-2.354,8.596-4.117,11.752-5.34c1.576-0.617,2.961-1.099,4.144-1.486
			c1.189-0.375,2.178-0.653,2.97-0.848c1.597-0.359,2.394-0.423,2.477-0.199c0.083,0.224-0.556,0.717-1.948,1.515
			c-0.691,0.414-1.566,0.913-2.627,1.513c-1.056,0.613-2.297,1.323-3.714,2.172c-2.84,1.687-6.374,3.928-10.674,6.783
			c-4.314,2.839-9.363,6.338-15.595,10.122c-6.247,3.788-12.012,6.559-17.129,8.36c-2.555,0.91-4.958,1.543-7.143,2.019
			c-1.102,0.211-2.145,0.401-3.138,0.535c-1,0.109-1.93,0.233-2.817,0.27c-0.887,0.033-1.709,0.07-2.477,0.052
			c-0.77-0.031-1.48-0.075-2.129-0.133c-1.302-0.15-2.366-0.376-3.198-0.635C552.057,395.472,551.318,394.82,551.353,394.157z"/>
	</g>
	<g>
		<path fill="#31353E" d="M510.697,345.728c-0.481-0.089-0.676-1.286-0.815-3.757c-0.074-1.235-0.126-2.787-0.212-4.674
			c-0.042-0.939-0.088-1.965-0.138-3.08c-0.062-1.108-0.128-2.304-0.2-3.592c-0.083-1.281-0.16-2.469-0.231-3.57
			c-0.078-1.098-0.125-2.107-0.166-3.031c-0.067-1.85-0.055-3.364,0.09-4.582c0.272-2.431,1.059-3.692,2.178-3.865
			c1.092-0.17,2.288,0.81,3.119,3.273c0.41,1.229,0.736,2.825,0.886,4.804c0.083,0.989,0.109,2.073,0.103,3.252
			c-0.017,1.179-0.083,2.451-0.202,3.817c-0.129,1.365-0.292,2.627-0.477,3.79c-0.195,1.161-0.394,2.224-0.617,3.189
			c-0.43,1.932-0.9,3.478-1.321,4.681C511.83,344.784,511.152,345.813,510.697,345.728z"/>
	</g>
	<g>
		<path fill="#31353E" d="M515.215,358.226c-0.444-0.16-0.683-0.831-0.623-2.119c0.071-1.281,0.428-3.199,1.469-5.676
			c1.053-2.473,2.228-4.029,3.292-4.794c1.066-0.771,2.017-0.765,2.695-0.268c0.687,0.502,0.969,1.38,0.698,2.571
			c-0.264,1.202-1.098,2.704-2.455,4.739C517.586,356.753,516.116,358.549,515.215,358.226z"/>
	</g>
	<path fill="#EB545D" d="M661.697,674.568c-0.396,22.53-2.43,54.049-28.64,61.409c-0.994,0.279-2.088,0.497-3.043,0.093
		c-7.826-3.331-3.952-39.609-3.827-47.039c0.272-16.862,1.242-33.701,2.368-50.525c3.036-45.3-1.522-91.92-4.643-137.22
		c-0.419-6.094-0.846-12.188-1.273-18.283c-0.349-5.093-0.699-10.193-1.04-15.286c-2.352-34.936-4.332-69.902-4.223-104.931
		c0.047-15.411,0.388-31.38-5.807-45.486c-2.857-6.498-7.003-12.344-11.28-18.003c-9.984-13.213-20.884-25.736-32.568-37.459
		c-0.831-0.831-1.661-1.654-2.492-2.477c-11.971-11.785-28.942-21.256-39.633-33.802c-6.863-8.043-3.206-8.058,6.188-5.077
		c7.499,2.383,14.673,6.452,21.28,10.636c9.704,6.141,18.578,13.485,27.087,21.21c3.525,3.191,6.995,6.451,10.426,9.72
		c14.238,13.54,28.298,27.265,42.164,41.178c6.762,6.785,13.834,14.301,15.17,23.78c2.042,14.479-9.867,27.219-12.033,41.674
		c-0.986,6.568,0.085,13.245,1.195,19.781c3.952,22.638,8.4,45.215,12.46,67.845c0.839,4.689,1.669,9.378,2.469,14.075
		c2.764,16.218,5.233,32.483,7.088,48.832C664.95,570.917,662.605,622.63,661.697,674.568z"/>
	<path fill="#C4464D" d="M579.233,260.021c-2.018,2.764-6.071,2.927-9.433,2.29c-0.699-0.132-1.39-0.295-2.081-0.473
		c-0.831-0.831-1.661-1.654-2.492-2.477c-11.971-11.785-28.942-21.256-39.633-33.802c-6.863-8.043-3.206-8.058,6.188-5.077
		c7.499,2.383,14.673,6.452,21.28,10.636c9.704,6.141,18.578,13.485,27.087,21.21c0.047,0.225,0.078,0.458,0.109,0.691
		C580.592,255.417,580.662,258.064,579.233,260.021z"/>
	<path fill="#31353E" d="M573.094,203.184c0.929,5.284,1.874,10.625,4.009,15.547c1.092,2.518,2.511,4.993,2.679,7.732
		s-1.475,5.86-4.203,6.152c-1.933,0.207-3.689-1.015-5.319-2.075c-1.631-1.061-3.331-2.015-5.087-2.853
		c-0.557-0.266-1.149-0.526-1.765-0.485c-0.921,0.062-1.647,0.764-2.395,1.305c-2.37,1.712-5.725,1.937-8.303,0.558
		c-0.694-0.371-1.368-0.859-2.152-0.924c-1.275-0.105-2.324,0.91-3.445,1.527c-2.771,1.524-6.191,0.625-9.213-0.307
		c-2.895-0.893-5.977-1.911-7.829-4.309c-1.182-1.531-1.716-3.454-2.138-5.341c-1.067-4.775-1.581-9.673-1.529-14.565
		c0.031-2.847,0.401-6.007,2.55-7.875c0.382-0.332,0.828-0.618,1.329-0.692c0.347-0.051,0.701,0.002,1.048,0.055
		c1.502,0.23,3.004,0.459,4.507,0.689c2.607,0.398,5.26,0.811,7.63,1.968c2.162,1.055,4.007,2.693,6.206,3.669
		c4.869,2.162,10.632,0.77,15.732,2.307"/>
	<path fill="#C4464D" d="M539.181,270.571c-0.683,1.933-1.685,3.781-3.206,5.147c-2.717,2.414-6.762,2.911-10.279,1.995
		c-3.525-0.908-6.599-3.059-9.355-5.426c-7.499-6.452-13.237-14.79-20.954-20.977c-6.436-5.147-14.044-8.633-21.808-11.397
		c-0.132-0.047-0.264-0.093-0.396-0.139c4.332-6.405,8.672-12.818,13.012-19.223c2.189-3.237,4.705-6.708,8.493-7.686
		c1.623-0.419,3.276-0.287,4.837,0.241c0.955,0.699,1.863,1.444,2.725,2.228c1.7,1.553,3.268,3.23,4.767,4.977
		c3.936,8.315,1.669,14.347,8.439,22.149c8.02,9.238,15.985,18.5,23.655,28.026C539.135,270.517,539.158,270.54,539.181,270.571z"/>
	<path fill="#F29681" d="M546.95,170.342c-0.544,1.571-1.964,3.062-3.178,4.392c-1.634,1.794-2.999,3.749-4.133,5.811
		c-0.661,1.205-1.241,2.455-1.75,3.731c-1.687,4.24-2.553,8.819-2.839,13.398c-0.116,1.91-0.134,3.812-0.072,5.695
		c0.196,5.392,0.991,10.739,1.83,16.086c0.714,4.678,1.473,9.355,1.857,14.077c0.116,1.402,0.152,2.955-0.804,4.061
		c-1.062,1.223-2.972,1.464-4.669,1.553c-12.926,0.687-26.003-1.437-37.857-6.15c-1.089-0.428-2.223-0.928-2.901-1.83
		c-0.955-1.268-0.732-2.981-0.482-4.508c1.571-9.748,2.553-19.567,2.928-29.413c0.054-1.232,0.089-2.473,0.116-3.704
		c0.25-10.239-2.963-22.602-0.661-32.537c5.044-21.825,37.348-1.794,48.667,3.598c1.634,0.776,3.392,1.705,3.972,3.303
		C547.281,168.736,547.227,169.548,546.95,170.342z"/>
	<path fill="#EE7471" d="M535.052,197.675c-0.116,1.91-0.134,3.812-0.072,5.695c0.196,5.392,0.991,10.739,1.83,16.086
		c-0.643-0.205-1.259-0.446-1.839-0.723c-5.195-2.446-9.4-6.534-13.497-10.551c-2.642-2.589-5.311-5.204-7.409-8.257
		c-3.223-4.677-5.008-10.176-6.445-15.666c-1.91-7.337-3.294-14.818-4.124-22.361l9.061-0.187
		c6.008-0.393,11.765,2.616,16.425,6.427c4.258,3.472,7.846,7.703,10.658,12.408c-0.661,1.205-1.241,2.455-1.75,3.731
		C536.203,188.517,535.337,193.096,535.052,197.675z"/>
	<path fill="#F29681" d="M594.052,144.918c-0.832,4.495-2.262,8.98-1.643,13.582c0.698,5.182,3.903,9.852,7.019,14.303
		c1.997,2.853,4.149,6.158,6.188,9.135c0.553,0.808,0.236,1.876-0.694,2.168c-3.163,0.994-7.343,0.047-10.563,0.214
		c-1.636,0.085-2.843,0.4-3.799,0.872c-2.598,1.281-4.172,6.454-4.771,8.47c-0.785,2.643-3.579,3.15-3.489,4.038
		c0.113,1.117-2.668,4.712-3.52,5.447c-5.365,4.635-2.688,15.1-11.642,16.618c-1.885,0.32-3.857,0.074-5.729-0.491
		c-10.941-3.307-20.725-9.329-30.384-15.291c-4.276-2.64-8.586-5.304-12.252-8.673c-8.901-8.179-13.17-19.685-16.026-30.875
		c-0.345-1.352-0.686-2.734-1.456-3.942c-0.628-0.986-1.513-1.809-2.361-2.642c-7.261-7.132-12.765-17.08-10.342-26.263
		c2.441-9.254,12.194-14.946,22.049-17.245c9.855-2.299,20.349-2.091,30.26-4.208c7.301-1.559,14.165-4.355,21.346-6.282
		c6.389-1.715,17.716-4.983,22.33,1.75c5.093,7.43,8.735,15.434,9.864,24.084C595.104,134.786,594.974,139.938,594.052,144.918z"/>
	<g>
		<path fill="#31353E" d="M568.165,153.881c0.3-0.161,0.79,0.306,1.772,1.13c0.493,0.409,1.125,0.902,1.962,1.36
			c0.834,0.451,1.882,0.882,3.141,0.98c1.241,0.094,2.33-0.2,3.184-0.547c0.857-0.362,1.5-0.793,1.982-1.176
			c0.963-0.769,1.388-1.287,1.707-1.149c0.263,0.096,0.388,0.915-0.496,2.246c-0.443,0.651-1.168,1.385-2.253,1.989
			c-1.08,0.586-2.541,1.071-4.301,0.941c-1.74-0.138-3.107-0.795-4.098-1.481c-0.997-0.699-1.645-1.451-2.061-2.089
			C567.878,154.788,567.904,154.012,568.165,153.881z"/>
	</g>
	<g>
		<path fill="#31353E" d="M561.986,140.512c-0.123-0.102-0.081-0.377,0.155-0.848c0.12-0.233,0.279-0.524,0.506-0.85
			c0.237-0.315,0.53-0.677,0.881-1.088c0.361-0.399,0.808-0.816,1.309-1.29c0.539-0.422,1.108-0.943,1.82-1.392
			c1.386-0.953,3.159-1.923,5.372-2.665c2.213-0.743,4.212-1.038,5.892-1.113c0.839-0.072,1.607,0.001,2.292,0.013
			c0.685,0.076,1.293,0.139,1.822,0.24c0.528,0.116,0.98,0.228,1.359,0.337c0.377,0.123,0.68,0.259,0.916,0.373
			c0.471,0.234,0.671,0.428,0.635,0.583c-0.037,0.155-0.306,0.257-0.811,0.299c-0.253,0.024-0.563,0.02-0.936,0.022
			c-0.376,0.017-0.813,0.022-1.312,0.014c-0.499,0.014-1.063,0.031-1.697,0.049c-0.631,0.072-1.33,0.069-2.092,0.193
			c-1.524,0.18-3.323,0.508-5.334,1.182c-2.011,0.674-3.644,1.497-4.968,2.273c-0.682,0.361-1.238,0.784-1.785,1.107
			c-0.516,0.367-0.977,0.695-1.383,0.984c-0.393,0.307-0.744,0.567-1.055,0.78c-0.299,0.224-0.544,0.414-0.76,0.547
			C562.385,140.533,562.109,140.614,561.986,140.512z"/>
	</g>
	<g>
		<path fill="#31353E" d="M563.497,192.25c0.088-0.155,0.75,0.102,2.16,0.636c1.407,0.536,3.574,1.35,6.716,2.148
			c3.145,0.787,5.445,1.129,6.934,1.386c1.492,0.246,2.188,0.388,2.185,0.555c-0.003,0.152-0.718,0.3-2.263,0.259
			c-1.54-0.052-3.915-0.273-7.138-1.079c-3.222-0.818-5.421-1.784-6.776-2.526C563.954,192.885,563.427,192.371,563.497,192.25z"/>
	</g>
	
		<ellipse transform="matrix(0.1605 -0.987 0.987 0.1605 310.7234 704.7437)" fill="#FABCAA" cx="569.672" cy="169.701" rx="4.501" ry="9.437"/>
	<path fill="#31353E" d="M594.217,470.396c-0.132,7.88-0.264,15.752-0.404,23.632c-7.492,2.787-16.427,4.293-22.918,5.877
		c-15.527,3.796-32.397,6.521-47.109,0.264c-7.802-3.315-14.331-8.905-19.999-15.302c1.731-11.785,2.5-23.624,0.885-35.402
		c-0.691-5.038-1.793-9.937-3.23-14.704c0.047-0.047,0.093-0.085,0.14-0.124c2.64-2.259,6.281-4.643,9.293-2.904
		c0.908,0.528,1.591,1.366,2.251,2.189c5.528,6.785,11.599,13.136,18.12,18.966c7.119,6.366,14.984,12.212,24.075,15.108
		c8.532,2.725,17.685,2.702,26.621,2.143C586.042,469.883,590.219,469.534,594.217,470.396z"/>
	<path fill="#31353E" d="M652,470.38c-9.782,4.216-19.572,8.423-29.361,12.624c-0.349-5.093-0.699-10.193-1.04-15.286
		c8.571-2.935,16.979-6.335,25.177-10.178c0.908-0.419,1.825-0.854,2.756-1.235C650.37,460.994,651.201,465.683,652,470.38z"/>
	<path fill="#EB545D" d="M646.116,464.496c-2.865,1.397-5.745,2.756-8.649,4.083c-20.76,9.503-42.427,17.297-64.569,23.57
		c-10.434,2.95-22.041,5.466-32.281,3.121c-2.508-0.574-4.93-1.436-7.228-2.655c-7.701-4.068-12.561-11.389-17.095-18.407
		c-24.703-38.204-49.717-77.107-61.378-120.295c-5.256-19.424-8.191-42.326,2.539-60.819c3.967-6.832,8.811-9.937,13.734-10.434
		c10.271-1.033,20.884,9.339,24.587,21.116c2.252,7.151,2.865,14.642,3.959,22.018c4.984,33.375,19.983,64.631,34.827,95.375
		c2.647,5.481,5.287,10.962,7.934,16.443c3.913,8.097,8.85,17.064,18.097,19.595c4.65,1.273,9.65,0.652,14.44-0.116
		c19.191-3.067,37.987-8.268,55.858-15.434c3.874-1.553,7.709-3.198,11.498-4.937c3.625-1.661,7.298-3.439,11.304-3.983
		c3.998-0.544,8.493,0.396,10.97,3.323c1.39,1.654,2.019,3.765,2.104,5.862C667.201,452.283,656.115,459.627,646.116,464.496z"/>
	<path fill="#31353E" d="M583.066,121.06c-2.698,1.951-7.059,2.799-8.933,0.047c-0.774-1.136-0.875-2.585-0.952-3.957
		c-0.128-2.288-0.256-4.576-0.384-6.863c-2.145,2.315-3.678,5.114-5.401,7.758c-7.935,12.178-20.363,21.355-34.338,25.354
		c-0.615,0.176-1.335,0.325-1.846-0.06c-0.405-0.305-0.535-0.845-0.629-1.343c-0.782-4.163-1.015-8.782-3.884-11.899
		c-3.96-4.301-11.282-3.517-16.03-0.106c-6.533,4.693-9.613,13.692-7.327,21.404c0.417,1.408,0.874,3.223-0.299,4.105
		c-0.42,0.315-0.96,0.413-1.481,0.479c-6.219,0.779-12.762-2.119-16.364-7.248c-3.587-5.107-4.163-11.699-4.214-17.94
		c-0.037-4.597,0.152-9.235,1.266-13.694c2.699-10.806,10.705-19.718,20.148-25.625c9.443-5.908,20.286-9.148,31.094-11.84
		c15.903-3.96,33.66-7.602,50.002-4.105c12.043,2.577,14.025,12.37,11.628,23.19C593.373,106.62,589.889,116.126,583.066,121.06z"/>
	<path fill="#31353E" d="M588.577,79.559c-21.263-25.537-58.509-35.09-90.597-26.454c-12.874,3.465-25.363,9.824-33.802,20.146
		c-15.745,19.258-14.545,47.994-29.006,68.234c-5.382,7.532-12.681,13.495-18.402,20.772c-5.721,7.278-9.897,16.771-7.448,25.699
		c0.11,0.401,0.237,0.808,0.487,1.14c1.418,1.895,4.758-0.216,6.733,1.087c1.394,0.92,1.316,2.957,2.011,4.475
		c2.438,5.323,11.325,1.43,16.067,4.864c1.537,1.113,2.43,2.881,3.578,4.392c2.152,2.835,5.235,4.799,8.316,6.581
		c20.225,11.695,43.457,18.139,66.817,18.533c1.185,0.02,2.482-0.013,3.388-0.777c0.653-0.55,0.984-1.39,1.203-2.216
		c1.058-3.987,0.064-8.197-0.93-12.201c-4.332-17.458-7.187-34.704-11.519-52.161c-2.018-8.13-5.529-16.673-4.653-25.004
		s5.261-16.801,12.902-20.232c7.081-3.179,15.29-1.52,23.009-2.332c12.892-1.357,23.907-9.52,34.209-17.389"/>
	<path fill="#EE7471" d="M515.762,133.299c-0.192-0.007-0.395-0.003-0.559,0.097c-0.567,0.345-0.093,1.209,0.396,1.658
		c0.491,0.452,0.99,0.929,1.246,1.546c0.256,0.616,0.204,1.412-0.3,1.849c-0.595,0.517-1.491,0.343-2.276,0.266
		s-1.79,0.147-1.941,0.92c-0.232,1.19,1.861,2.114,1.296,3.187c-0.224,0.425-0.761,0.552-1.153,0.831
		c-0.305,0.218-0.524,0.534-0.73,0.847c-1.415,2.154-2.522,4.51-3.277,6.974c-0.07,0.228-0.137,0.471-0.078,0.701
		c0.049,0.193,0.181,0.353,0.317,0.499c0.77,0.83,1.842,1.444,2.974,1.421c0.873-0.018,1.694-0.407,2.443-0.854
		c2.982-1.783,5.181-4.727,6.263-8.009c0.792-2.401,1.5-6.661,0.348-9.065C519.904,134.439,517.579,133.368,515.762,133.299z"/>
	<path fill="#C4464D" d="M646.116,464.496c-2.865,1.397-5.745,2.756-8.649,4.083c-0.264-4.712-0.691-9.409-1.809-13.99
		c-1.095-4.472-2.834-8.742-4.767-12.934c3.874-1.553,7.709-3.198,11.498-4.937c3.625-1.661,7.298-3.439,11.304-3.983
		c3.998-0.544,8.493,0.396,10.97,3.323c1.39,1.654,2.019,3.765,2.104,5.862C667.201,452.283,656.115,459.627,646.116,464.496z"/>
	<g>
		<path fill="#31353E" d="M614.217,672.333c0.408,0.173,0.545,0.986,0.395,2.446c-0.072,0.731-0.229,1.617-0.434,2.677
			c-0.192,1.066-0.452,2.296-0.784,3.693c-0.639,2.789-1.444,6.301-2.422,10.566c-0.968,4.251-2.016,9.27-3.092,15.102
			c-1.078,5.832-2.171,12.481-3.237,20.005c-1.082,7.516-2.146,15.918-3.309,25.203c-1.168,9.29-2.443,19.44-3.83,30.477
			c-1.402,11.05-2.929,23-4.769,35.861c-1.789,12.863-3.756,24.788-5.674,35.801c-1.04,5.497-2.009,10.776-3.035,15.82
			c-0.536,2.518-1.061,4.982-1.575,7.392c-0.522,2.408-0.99,4.769-1.565,7.056c-0.549,2.29-1.086,4.527-1.61,6.712
			c-0.541,2.18-0.997,4.323-1.585,6.383c-1.118,4.128-2.181,8.05-3.188,11.768c-2.264,7.37-4.183,13.951-6.258,19.635
			c-1.007,2.85-1.871,5.531-2.81,7.976c-0.955,2.438-1.838,4.69-2.649,6.759c-0.821,2.065-1.535,3.959-2.246,5.648
			c-0.748,1.674-1.418,3.172-2.01,4.498c-1.191,2.648-2.085,4.6-2.7,5.883c-0.615,1.282-0.95,1.895-1.024,1.863
			c-0.074-0.032,0.118-0.707,0.579-2.053c0.461-1.346,1.191-3.362,2.195-6.076c0.505-1.355,1.075-2.886,1.712-4.596
			c0.605-1.722,1.207-3.649,1.908-5.746c0.693-2.099,1.447-4.382,2.263-6.854c0.802-2.475,1.52-5.188,2.372-8.065
			c1.764-5.738,3.336-12.372,5.214-19.774c0.817-3.732,1.679-7.669,2.586-11.812c0.483-2.063,0.834-4.213,1.266-6.397
			c0.417-2.188,0.843-4.428,1.28-6.721c0.463-2.286,0.818-4.652,1.226-7.061c0.4-2.41,0.809-4.873,1.228-7.391
			c0.792-5.043,1.524-10.321,2.324-15.809c1.44-11.01,2.92-22.908,4.246-35.775c1.376-12.856,2.53-24.826,3.665-35.909
			c1.133-11.085,2.216-21.285,3.355-30.618c1.113-9.328,2.242-17.805,3.511-25.45c1.251-7.642,2.648-14.435,4.131-20.372
			c1.481-5.938,3.035-11.022,4.583-15.267c0.74-2.131,1.548-4.036,2.244-5.762c0.759-1.708,1.441-3.231,2.107-4.553
			c0.681-1.318,1.301-2.448,1.862-3.398c0.575-0.945,1.11-1.701,1.566-2.288C613.148,672.635,613.809,672.159,614.217,672.333z"/>
	</g>
	<g>
		<path fill="#31353E" d="M440.56,937.958c1.236-0.241,2.491-0.186,3.613-0.542c0.265-0.084,0.546-0.195,0.789-0.327
			c0.094-0.056,0.193-0.114,0.297-0.176c0.078-0.049,0.154-0.102,0.226-0.161c0.062-0.054,0.22-0.161,0.318-0.252
			c0.12-0.112,0.244-0.228,0.374-0.349c0.178-0.169,0.226-0.238,0.317-0.335c0.096-0.091,0.183-0.182,0.26-0.273
			c0.688-0.726,1.453-1.278,2.773-1.672c0.277-0.109,0.825-0.163,1.291-0.221c0.483-0.055,0.978-0.097,1.486-0.127
			c1.009-0.035,2.099-0.129,3.229-0.126c2.268-0.015,4.787,0.017,7.583,0.142c2.804,0.078,5.893,0.199,9.325,0.263
			c3.43,0.031,7.2-0.023,11.335-0.327c4.133-0.309,8.634-0.879,13.462-1.959c9.652-2.145,17.816-5.882,24.302-9.857
			c3.252-1.987,6.123-4.024,8.577-6.047c2.495-1.988,4.56-3.969,6.361-5.761c0.884-0.909,1.673-1.792,2.427-2.604
			c0.738-0.823,1.372-1.623,1.98-2.345c1.208-1.451,2.085-2.734,2.843-3.723c1.387-2.049,2.062-3.052,2.206-2.983
			c0.144,0.069-0.243,1.197-1.066,3.583c-0.478,1.159-1.009,2.667-1.796,4.44c-0.398,0.883-0.803,1.867-1.296,2.906
			c-0.509,1.027-1.036,2.156-1.645,3.346c-1.251,2.356-2.713,5.046-4.613,7.933c-1.861,2.92-4.147,6.046-6.935,9.333
			c-2.789,3.284-6.099,6.721-10.104,10.102c-4.001,3.374-8.712,6.702-14.224,9.64c-5.506,2.938-10.982,5.07-16.206,6.537
			c-5.227,1.466-10.202,2.28-14.786,2.593c-4.588,0.282-8.781,0.093-12.512-0.422c-3.728-0.561-6.996-1.395-9.769-2.473
			c-1.385-0.55-2.662-1.074-3.802-1.72c-0.572-0.311-1.116-0.624-1.631-0.939c-0.547-0.348-1.071-0.681-1.573-1
			c-2.306-1.491-4.39-3.436-5.66-5.687c-0.634-1.111-1.044-2.316-1.169-3.376c-0.128-1.086,0.012-2.031,0.338-2.765
			c0.315-0.735,0.798-1.25,1.337-1.603C439.357,938.269,439.946,938.078,440.56,937.958z"/>
	</g>
	<g>
		<path fill="#31353E" d="M483.195,890.273c-0.018,0.078-0.117,0.134-0.342,0.328c-0.245,0.21-0.592,0.508-1.059,0.908
			c-0.484,0.4-1.13,0.965-1.893,1.444c-0.754,0.458-1.65,0.893-2.58,0.997c-0.908,0.052-1.895-0.065-3.002-0.247
			c-1.068-0.257-2.281-0.552-3.494-1.123c-1.243-0.521-2.511-1.264-3.816-2.175c-0.634-0.48-1.279-1-1.929-1.56
			c-0.627-0.589-1.248-1.231-1.88-1.9c-0.592-0.713-1.152-1.404-1.657-2.093c-0.484-0.71-0.918-1.414-1.324-2.088
			c-0.76-1.396-1.362-2.718-1.785-3.984c-0.47-1.231-0.7-2.447-0.945-3.48c-0.175-1.08-0.308-2.021-0.38-2.855
			c-0.051-0.846-0.082-1.562-0.1-2.165c-0.006-0.608,0.023-1.113,0.033-1.503c0.035-0.786,0.062-1.152,0.208-1.208
			c0.147-0.056,0.433,0.198,1.006,0.706c0.286,0.254,0.634,0.574,1.069,0.942c0.448,0.349,0.973,0.759,1.578,1.232
			c0.606,0.454,1.329,0.929,2.073,1.46c0.811,0.492,1.605,1.071,2.548,1.617c0.897,0.58,1.905,1.144,2.913,1.779
			c0.526,0.299,1.061,0.608,1.583,0.95c0.558,0.306,1.109,0.64,1.664,0.994c0.578,0.328,1.12,0.65,1.621,0.982
			c0.526,0.299,1.013,0.605,1.467,0.919c0.943,0.574,1.757,1.176,2.519,1.718c0.736,0.595,1.438,1.077,2.022,1.663
			c0.612,0.515,1.142,1.058,1.601,1.611c0.45,0.57,0.749,1.408,1.01,2.21c0.263,0.787,0.476,1.559,0.667,2.146
			c0.186,0.604,0.342,1.042,0.451,1.313C483.15,890.096,483.214,890.195,483.195,890.273z"/>
	</g>
</g>
</svg>
