<svg width="1200" height="1200" xmlns="http://www.w3.org/2000/svg">

 <g>
  <title>background</title>
  <rect fill="none" id="canvas_background" height="602" width="802" y="-1" x="-1"/>
 </g>
 <g>
  <title>Layer 1</title>
  <g stroke="null" id="svg_1">
   <ellipse stroke="null" id="svg_2" ry="19.85355" rx="153.58643" cy="907.64789" cx="802.0687" fill="#D3E4ED"/>
   <g stroke="null" id="svg_3">
    <g stroke="null" id="svg_4">
     <g stroke="null" id="svg_5">
      <path stroke="null" id="svg_6" d="m904.16509,907.41801c-0.10568,0.00994 -0.33122,-1.10967 -0.70066,-3.45032c-0.36902,-2.34065 -0.88152,-5.90233 -1.55469,-10.77692c-1.33947,-9.74998 -3.34738,-24.75002 -5.95844,-45.75579c-2.61149,-21.00538 -4.26413,-36.03922 -5.02966,-45.8433c-0.77412,-9.80368 -0.67833,-14.37599 -0.01246,-14.43923c0.66587,-0.06284 1.75703,4.39771 3.13774,14.14372c1.3893,9.74561 3.05053,24.77826 5.07606,45.83932c2.0251,21.06106 3.33192,36.12712 4.14685,45.92682c0.40468,4.90005 0.67918,8.4844 0.82868,10.84573c0.1495,2.36133 0.1727,3.50003 0.06659,3.50998z" fill="#31353E"/>
     </g>
     <g stroke="null" id="svg_7">
      <path stroke="null" id="svg_8" d="m848.31255,908.45608c-0.10654,0.00278 -0.23928,-1.05757 -0.41069,-3.26776c-0.16969,-2.21019 -0.38234,-5.57023 -0.64568,-10.16641c-0.52625,-9.19276 -1.2789,-23.33131 -2.30004,-43.11048c-1.02887,-19.77878 -1.68486,-33.91613 -1.86357,-43.12043c-0.18859,-9.2035 0.08377,-13.47314 0.64911,-13.4986c0.5589,-0.02506 1.29006,4.20044 2.01092,13.38604c0.72386,9.1852 1.42753,23.33131 2.00491,43.13594c0.56964,19.80463 0.74276,33.96465 0.7999,43.17213c0.02363,4.60414 0.01461,7.97014 -0.02792,10.1859c-0.04038,2.21536 -0.11041,3.28088 -0.21694,3.28367z" fill="#31353E"/>
     </g>
     <g stroke="null" id="svg_9">
      <path stroke="null" id="svg_10" d="m862.57028,901.9667c-0.10611,0.00557 -0.27494,-1.05041 -0.52024,-3.25424c-0.24401,-2.20423 -0.56964,-5.55631 -0.98763,-10.14294c-0.83556,-9.17327 -2.06376,-23.28279 -3.75034,-43.02259c-1.69431,-19.739 -2.82586,-33.85051 -3.3143,-43.04526c-0.49833,-9.19356 -0.36988,-13.46917 0.19461,-13.51053c0.55761,-0.04097 1.43097,4.16106 2.4607,13.32161c1.03274,9.15975 2.2124,23.27881 3.4565,43.05639c1.23637,19.77838 1.88591,33.92647 2.25278,43.12798c0.17871,4.60095 0.2831,7.96576 0.31532,10.18152c0.03351,2.21576 -0.00086,3.28248 -0.1074,3.28804z" fill="#31353E"/>
     </g>
     <g stroke="null" id="svg_11">
      <path stroke="null" id="svg_12" d="m793.46955,897.66206c-0.10482,-0.0167 -0.02277,-1.03012 0.23585,-3.12418c0.27279,-2.09167 0.68778,-5.26914 1.25484,-9.61555c0.27451,-2.1732 0.58639,-4.63834 0.93608,-7.40615c0.32005,-2.77099 0.7157,-5.83869 1.08558,-9.22617c0.39394,-3.38429 0.78529,-7.08518 1.21446,-11.10704c0.20363,-2.01172 0.41585,-4.10459 0.63623,-6.27978c0.20835,-2.17519 0.42444,-4.43311 0.64825,-6.77416c0.21179,-2.34144 0.41585,-4.59936 0.61217,-6.77535c0.18816,-2.17599 0.36902,-4.26964 0.543,-6.28216c0.33895,-4.02504 0.6504,-7.72672 0.93522,-11.115c0.30544,-3.38628 0.54601,-6.46194 0.82782,-9.23055c0.24873,-2.7706 0.51379,-5.23653 0.76639,-7.40933c0.2453,-2.1732 0.49876,-4.05288 0.75694,-5.64898c0.25131,-1.59649 0.49876,-2.9102 0.75522,-3.95066c0.50993,-2.08093 1.03145,-3.07009 1.52033,-3.04861c0.48888,0.02148 0.89785,1.0524 1.17322,3.17668c0.13618,1.06234 0.2453,2.39792 0.30458,4.01709c0.05198,1.61877 0.06272,3.52111 0.02792,5.71739c-0.04253,2.19587 -0.15165,4.68408 -0.30372,7.47615c-0.18515,2.79008 -0.38792,5.88563 -0.7157,9.28901c-0.30372,3.40537 -0.70883,7.11939 -1.17966,11.15477c-0.25432,2.0157 -0.51852,4.11254 -0.79346,6.29171c-0.30243,2.17599 -0.61603,4.43391 -0.94124,6.77535c-0.35269,2.33786 -0.69336,4.5926 -1.02114,6.76501c-0.35184,2.16883 -0.68992,4.25612 -1.01556,6.26228c-0.68219,4.00834 -1.32357,7.69093 -1.95593,11.05494c-0.6083,3.36719 -1.23078,6.41222 -1.76133,9.16055c-0.56749,2.74236 -1.07312,5.18482 -1.51904,7.33814c-0.46997,2.14815 -0.8768,4.00754 -1.22262,5.58812c-0.35742,1.5786 -0.66716,2.8756 -0.91632,3.90493c-0.5009,2.05746 -0.78358,3.03867 -0.8884,3.02156z" fill="#31353E"/>
     </g>
     <g stroke="null" id="svg_13">
      <path stroke="null" id="svg_14" d="m842.61101,844.56931c-0.05026,0.39137 -6.18097,0.03898 -20.3618,-1.52092c-14.18083,-1.5599 -20.23034,-2.54667 -20.18008,-2.93804c0.05026,-0.39137 6.18097,-0.03898 20.3618,1.52092c14.18083,1.5595 20.23034,2.54667 20.18008,2.93804z" fill="#31353E"/>
     </g>
     <g stroke="null" id="svg_15">
      <path stroke="null" id="svg_16" d="m894.84209,836.32594c0.07862,0.38739 -6.94564,1.93775 -23.45057,4.81613c-16.50492,2.87878 -23.65677,3.80112 -23.73581,3.41373c-0.07862,-0.38739 6.94564,-1.93775 23.45057,-4.81613c16.50492,-2.87878 23.6572,-3.80112 23.73581,-3.41373z" fill="#31353E"/>
     </g>
     <path stroke="null" id="svg_17" d="m859.97898,798.29766c17.51446,-1.07308 34.06363,-5.3825 43.38836,-18.37439c3.37187,-3.94311 5.83515,-8.48838 7.95733,-13.12235c10.8502,-23.69245 13.16227,-49.97532 13.25076,-75.72206c0.02921,-8.45497 -0.18129,-17.01216 -2.55135,-25.17599c-2.37049,-8.16343 -7.12221,-15.99953 -14.60312,-20.81685c-8.19919,-5.27988 -19.06787,-6.38915 -28.66839,-3.86754c-9.60052,2.52162 -17.94019,8.41639 -24.08121,15.71993c-3.82938,4.55402 -6.87605,9.67481 -8.99007,15.10981c-2.78161,7.1516 -3.92819,14.7431 -5.59243,22.18823c-2.6218,11.72949 -6.56417,23.20404 -11.74204,34.17585c-1.96281,4.15947 -4.16618,8.33128 -7.61967,11.54653c-3.46294,3.22401 -7.95347,5.2767 -12.07626,7.74184c-6.87261,4.10936 -12.95907,9.61475 -16.49461,16.46011c-4.96479,9.61277 -4.42308,26.62453 7.93499,31.32094c4.24995,1.61519 8.9643,1.71581 13.55577,1.79377c12.92427,0.21955 30.04566,2.02008 46.33192,1.02217z" fill="#EB545D"/>
     <ellipse stroke="null" id="svg_18" ry="4.48959" rx="4.83377" cy="903.83524" cx="903.4902" fill="#31353E"/>
     <ellipse stroke="null" id="svg_19" ry="4.48959" rx="4.83377" cy="908.32483" cx="848.31255" fill="#31353E"/>
     <ellipse stroke="null" id="svg_20" ry="4.48959" rx="4.83377" cy="897.66206" cx="792.96307" fill="#31353E"/>
     <ellipse stroke="null" id="svg_21" ry="3.72913" rx="4.01497" cy="900.48913" cx="862.00537" fill="#31353E"/>
    </g>
    <g stroke="null" id="svg_22">
     <path stroke="null" id="svg_23" d="m796.84615,862.69393c1.06797,8.79344 2.13593,17.58688 3.2039,26.38032c0.79045,6.50688 1.58047,13.01337 2.37092,19.52025c0.0799,0.65665 0.1495,1.36302 -0.19933,1.93934c-0.4558,0.75291 -1.45804,1.03052 -2.36404,1.23376c-2.08911,0.46853 -4.18895,0.89649 -6.29266,1.30615c-14.92445,2.90543 -30.05812,4.8909 -45.26696,5.93892c-2.77774,0.19131 -5.69338,0.33012 -8.22196,-0.75131c-0.19804,-0.08472 -0.40511,-0.18773 -0.50305,-0.3683c-0.19332,-0.35716 0.13876,-0.75768 0.45236,-1.03171c3.01788,-2.63537 6.65696,-4.56874 10.28486,-6.43211c6.43572,-3.30515 12.9552,-6.46989 19.55159,-9.49106c0.72386,-0.33131 1.47694,-0.68251 1.95636,-1.28427c0.58811,-0.73819 0.66802,-1.7349 1.20844,-2.50372c0.37976,-0.54012 0.96486,-0.93626 1.34033,-1.47916c0.6504,-0.94063 0.56878,-2.14695 0.44763,-3.25821c-0.96014,-8.80975 -2.96247,-17.52125 -5.96016,-25.92929c-0.32048,-0.89887 -0.64439,-1.91746 -0.16668,-2.75469c0.35484,-0.62245 1.07097,-0.982 1.75274,-1.29302c6.42498,-2.92929 13.46126,-4.70476 20.6028,-5.19874" fill="#683E48"/>
     <path stroke="null" id="svg_24" d="m741.33213,852.93479c-0.17441,8.84753 -0.34926,17.69466 -0.52367,26.54219c-0.12931,6.54666 -0.25818,13.09331 -0.38749,19.63997c-0.01289,0.66063 -0.04296,1.36939 -0.46954,1.89917c-0.55718,0.69165 -1.58992,0.84637 -2.51698,0.93904c-2.13722,0.21358 -4.27917,0.385 -6.42283,0.53813c-15.20584,1.0862 -30.48943,1.23496 -45.71675,0.44546c-2.78118,-0.14438 -5.69123,-0.35756 -8.04712,-1.73371c-0.18429,-0.10779 -0.37546,-0.23506 -0.44678,-0.42557c-0.14177,-0.37705 0.24401,-0.73461 0.59327,-0.96848c3.36199,-2.25036 7.24163,-3.72953 11.0998,-5.14068c6.84469,-2.50332 13.75339,-4.85749 20.7175,-7.05973c0.76424,-0.24182 1.56028,-0.49915 2.11961,-1.03808c0.68692,-0.66143 0.90558,-1.63985 1.54954,-2.33747c0.45236,-0.49 1.08816,-0.81217 1.53622,-1.30535c0.7767,-0.85472 0.8652,-2.06065 0.90085,-3.17668c0.28396,-8.85031 -0.47942,-17.72927 -2.27211,-26.42646c-0.1916,-0.9299 -0.36988,-1.97871 0.22124,-2.75111c0.43947,-0.57432 1.19942,-0.84518 1.91942,-1.07149c6.78154,-2.13184 14.00685,-3.04622 21.15783,-2.67753" fill="#683E48"/>
     <path stroke="null" id="svg_25" d="m888.84928,717.18714c-1.03661,-5.15301 -7.88043,-4.50033 -14.58293,-3.03787c-0.83298,-1.86019 -2.87784,-3.11702 -4.81573,-4.1372c-17.45604,-9.19157 -37.82643,-13.57019 -57.87119,-12.43944l-7.61838,1.58416c-2.17073,4.34402 -4.34146,8.68844 -6.51218,13.03246c-28.04505,-0.06682 -56.21812,-2.22133 -83.31678,5.35505c-4.00294,1.11922 -8.1253,2.54985 -11.09937,5.6792c-3.06342,3.22321 -4.50298,7.8357 -5.34069,12.35592c-2.1587,11.64796 -1.01083,23.65944 0.56191,35.37302c3.58666,26.71799 9.35694,53.27093 9.04248,80.31347c-0.03823,3.28009 -0.119,6.767 1.43699,9.56186c2.34858,4.21834 7.44698,5.31488 11.96371,6.0137c4.77105,0.73819 9.63317,1.47598 14.4025,0.61449c4.76976,-0.86149 8.62664,-2.06184 10.91851,-6.69103c1.84853,-3.7343 0.65255,-11.29716 0.64911,-15.5147c-0.01461,-18.11825 0.93178,-35.54166 0.62592,-53.13291c6.30426,25.04036 14.14947,49.81981 16.61705,75.54308c0.31618,3.2956 0.61217,6.80279 2.46242,9.46481c2.79235,4.01709 7.98354,4.64709 12.55311,4.93187c4.8269,0.30068 9.74443,0.59262 14.39734,-0.71273c4.65291,-1.30496 9.08501,-4.48521 10.86567,-9.3431c1.43613,-3.91845 1.00009,-8.35713 0.54129,-12.58978c-2.92681,-27.01032 -5.86651,-54.1002 -11.77125,-80.59307c-0.24616,-1.1041 -0.42701,-2.46593 0.36472,-3.17668c0.4094,-0.3675 0.97388,-0.44188 1.50572,-0.50313c10.32567,-1.18882 20.60237,-2.79923 30.80174,-4.82687c18.07422,-3.5935 36.76405,-3.36839 53.94,-10.30283c1.8262,-0.73739 3.67473,-1.53644 5.15124,-2.9106c1.69044,-1.57382 2.76915,-3.79078 3.59139,-6.05228c2.74982,-7.56445 2.6523,-23.33767 0.5357,-33.85886z" fill="#31353E"/>
     <path stroke="null" id="svg_26" d="m804.2579,580.79755c-25.02287,8.31855 -39.19511,33.56096 -63.07441,44.38322c-2.66948,1.2099 -5.48245,2.23764 -8.43719,2.53593c-2.56552,0.25932 -5.15682,-0.03858 -7.70602,-0.41086c-13.39597,-1.95445 -26.66091,-6.08926 -37.45655,-13.68752c-2.23946,-1.57621 -4.52919,-3.36202 -7.32068,-3.68498c-1.48338,-0.17142 -2.99597,0.09585 -4.39644,0.57989c-6.72311,2.32394 -10.46142,9.59924 -9.64219,16.19999c0.2831,2.28178 1.04692,4.558 2.54877,6.38597c1.60925,1.95922 3.94279,3.27731 6.22307,4.54289c11.06156,6.14017 22.31387,12.18967 34.55767,15.94345c12.2438,3.75379 25.68659,5.09533 38.05068,1.69632c11.42929,-3.14168 21.12604,-10.03635 30.97487,-16.25726c7.48779,-4.72942 15.21142,-9.13827 23.13825,-13.20786c2.14538,-1.10132 4.32728,-2.1919 6.15691,-3.70487c4.5047,-3.72436 6.29352,-9.48072 7.30865,-14.99288c1.17708,-6.38995 1.57188,-13.09808 -0.69551,-19.2307c-0.9421,-2.54866 -2.46715,-5.0838 -5.01162,-6.38955" fill="#83C3B8"/>
     <path stroke="null" id="svg_27" d="m870.87687,599.29126c3.03764,4.61567 5.26508,9.67044 7.55223,15.02151c9.23365,21.60237 15.57657,44.88079 17.37699,68.09556c0.87508,11.28324 -0.4515,22.56449 -0.8798,33.83738c-0.04683,1.23854 -0.11814,2.54906 -0.86391,3.57839c-0.50176,0.69205 -1.263,1.18564 -2.04572,1.59729c-6.93748,3.6472 -15.57915,1.72019 -23.31009,-0.10421c-20.84681,-4.91954 -42.0897,-8.39849 -63.49412,-10.39828c-1.72009,-0.16068 -3.51406,-0.33449 -4.96952,-1.19797c-4.00251,-2.37406 -3.05869,-7.89337 -2.05345,-12.19484c6.04608,-25.86565 -3.70695,-52.35416 -6.78884,-78.66447c-0.59241,-5.05835 -0.93393,-10.2022 0.03652,-15.21004c1.75102,-9.03287 7.71504,-17.0225 15.16331,-23.07796c9.53222,-7.75019 20.99631,-12.77473 32.24517,-5.74244c7.85294,4.9092 16.34726,9.05395 23.48064,14.89185c3.54757,2.90264 6.27634,6.11194 8.5506,9.56822z" fill="#019798"/>
     <path stroke="null" id="svg_28" d="m829.36282,576.21092c5.31706,1.79218 11.34123,1.99661 16.80736,0.57114c3.46036,-0.90245 7.23991,-3.4193 6.30254,-6.4154c4.75687,-0.7179 9.80114,-1.55394 13.33239,-4.38021c3.53125,-2.82628 4.52876,-8.36667 0.71484,-10.90818c3.33234,-1.50661 6.5676,-3.31111 8.92778,-5.82915c2.35975,-2.51804 3.75592,-5.85102 3.02605,-9.02015c-0.72988,-3.16952 -3.91874,-5.98068 -7.68239,-6.11034c1.96452,-3.38827 2.76056,-7.46661 1.1019,-10.97301s-6.21147,-6.10398 -10.50825,-5.24329c1.75231,-4.79863 -0.04339,-10.40942 -4.40632,-13.76866c-4.36294,-3.35884 -11.06027,-4.28675 -16.43447,-2.27661c-3.11798,-4.95573 -8.14506,-9.28504 -14.48412,-10.75306c-6.33863,-1.46803 -13.94971,0.54569 -17.12139,5.47636c-6.30856,-2.43054 -12.13039,-6.57529 -19.04553,-6.58325c-3.97029,-0.00438 -7.78678,1.40797 -11.08949,3.29759c-2.4723,1.41433 -4.77792,3.16157 -6.15176,5.42147c-1.37384,2.25991 -1.68701,5.10369 -0.2569,7.33774c-4.88102,1.43661 -9.25857,4.4701 -11.21149,8.56673c-1.95293,4.09663 -1.11737,9.23572 2.6059,12.29984c-2.89674,1.59411 -5.2088,4.3472 -4.92957,7.28962s3.98532,5.55551 7.19524,4.49039c-0.2831,2.29292 1.49498,4.65226 4.0489,5.37295c1.83092,0.51626 4.01196,0.2979 5.49921,1.3491c3.00156,2.1207 0.05198,6.42376 1.29092,9.58532c0.51078,1.30297 1.71064,2.30644 2.8701,3.25583c2.66304,2.18116 5.32565,4.36271 7.98869,6.54387c2.55994,2.09724 5.16885,4.2243 8.3242,5.60045c3.81478,1.66371 8.16053,2.11832 12.35292,2.85611c5.36818,0.94461 10.61608,2.39156 15.62039,4.30663" fill="#31353E"/>
     <path stroke="null" id="svg_29" d="m641.88632,590.10764c-0.85918,-0.23983 -2.02681,-0.35557 -2.43106,0.3862c-0.22511,0.41245 -0.07904,0.91399 0.1336,1.3324c1.82577,3.58833 7.61838,4.25095 9.35436,7.87746c1.15646,2.41622 0.0537,5.18482 -0.8463,7.69292c-0.9,2.5077 -1.48467,5.56386 0.39866,7.54934c0.74878,0.7895 1.78925,1.2803 2.80309,1.7528c6.43056,2.99531 24.9928,14.45315 28.29379,1.96678c2.48003,-9.38129 -11.62734,-17.02687 -18.57813,-20.80572c-6.01472,-3.27174 -12.44786,-5.88841 -19.12801,-7.75218z" fill="#C35C52"/>
     <path stroke="null" id="svg_30" d="m802.86946,610.70018c0.08162,2.51287 0.35656,5.06869 1.4271,7.37871c1.07054,2.31002 3.04452,4.3659 5.63453,5.11999c2.28672,0.6658 4.79811,0.26091 7.02383,-0.56319c6.54483,-2.42338 10.96362,-8.08826 14.51033,-13.72809c4.84279,-7.70047 8.84487,-16.24255 8.62578,-25.15053c-0.0842,-3.43441 -1.34205,-7.46303 -4.87114,-8.52457c-2.28758,-0.68808 -4.7646,0.14318 -6.93361,1.10609c-6.70808,2.97781 -11.79101,7.32462 -17.03805,12.08387c-3.38347,3.06889 -6.21018,5.42466 -7.28588,9.86572c-0.9756,4.03101 -1.22691,8.2927 -1.09288,12.412z" fill="#83C3B8"/>
     <path stroke="null" id="svg_31" d="m835.2637,584.09037c-1.59937,6.63336 -4.72036,12.9195 -8.86377,18.5307c-2.22271,3.01321 -4.89391,5.94727 -8.52525,7.36519c-1.6651,0.6491 -3.56948,0.88615 -5.36603,0.65984c-1.49584,-0.18335 -2.91263,-0.68529 -4.05406,-1.52848c-0.479,-0.35756 -0.91245,-0.77478 -1.27761,-1.25405c-1.21059,-1.58496 -1.55684,-3.58594 -1.80429,-5.51494c-0.52367,-4.09106 -0.74191,-8.21434 -0.65556,-12.33245c0.09709,-4.66181 0.57995,-9.31526 1.44644,-13.90548c0.36601,-1.94849 0.80248,-3.88504 1.30596,-5.80528c0.94596,-3.60424 1.66209,-9.70902 6.44173,-10.66119c4.7646,-0.9474 7.66134,3.60504 10.72433,6.05188c3.82337,3.051 9.00854,5.51216 10.71617,10.21891c0.95112,2.61707 0.56062,5.48113 -0.08807,8.17537z" fill="#C35C52"/>
     <path stroke="null" id="svg_32" d="m820.51366,598.95199c-1.70333,2.70656 -3.66356,5.32562 -6.26431,7.3282c-1.68873,1.30018 -3.68031,2.32355 -5.79434,2.83741c-0.479,-0.35756 -0.91245,-0.77478 -1.27761,-1.25405c-1.21059,-1.58496 -1.55684,-3.58594 -1.80429,-5.51494c-0.52367,-4.09106 -0.74191,-8.21434 -0.65556,-12.33245c2.07708,-2.43769 4.54165,-4.60453 7.05948,-6.67234c4.11764,-3.38072 8.66659,-6.66637 14.07257,-7.6253l2.95344,1.04723c-1.17966,7.79911 -4.01282,15.38106 -8.28941,22.18624z" fill="#683E48"/>
     <path stroke="null" id="svg_33" d="m835.12666,554.89411c-0.18215,0.6495 -0.35957,1.30177 -0.5241,1.95564c-0.0842,0.32972 -0.16539,0.65984 -0.241,0.99075c-1.58004,6.84495 -1.60496,14.01605 -5.20708,20.37935c-2.93884,5.19397 -24.32178,35.61206 -42.76201,9.31606c-1.92199,-2.74077 -9.02358,-15.0239 -8.19833,-23.42716c0.15809,-1.60882 0.50606,-6.14972 0.88968,-7.12774c1.35579,-3.45708 0.36386,-7.28882 0.39737,-10.96147c0.01074,-1.21149 0.01547,-2.47787 0.04683,-3.76811c0.00344,-0.16267 0.00816,-0.32534 0.01289,-0.48762c0.14219,-4.66976 0.69895,-9.61833 3.29497,-13.49621c2.45168,-3.66748 8.11413,-6.94757 12.66351,-8.3448c4.32127,-1.32723 9.04764,-1.62195 13.67262,-1.26479c4.12666,0.31858 8.23914,1.15342 12.00022,2.69264c7.82845,3.20333 13.61721,9.6247 15.71318,16.69954c1.74028,5.87449 -0.20019,11.2892 -1.75875,16.84392z" fill="#C35C52"/>
     <path stroke="null" id="svg_34" d="m833.53029,551.22107c1.34806,-1.36342 3.51406,-2.17161 5.39653,-1.55632c2.3954,0.78313 3.40924,3.41572 3.62275,5.75915c0.30587,3.35168 -0.41842,6.81552 -2.2923,9.69708c-1.87388,2.88156 -4.93257,5.1367 -8.45867,5.94648c-1.10104,0.25296 -2.36361,0.33887 -3.2765,-0.28438c-1.27288,-0.86904 -1.23937,-2.61588 -1.01126,-4.06442c0.77799,-4.93306 2.21369,-11.64915 6.01944,-15.4976z" fill="#C35C52"/>
     <path stroke="null" id="svg_35" d="m860.23115,603.50085c7.47791,-2.82548 12.76575,1.10211 14.85744,4.59738c19.05154,31.83043 29.63669,67.96749 30.56504,104.34836c0.10654,4.17618 0.03437,8.55997 -2.13808,12.22148c-2.93111,4.93982 -9.02057,7.47297 -14.88622,8.98037c-18.54978,4.7676 -38.57435,3.00048 -57.32819,0.21477c-2.97836,-0.44228 -6.06799,-1.01103 -7.99428,-3.34054c-1.84639,-2.23326 -2.70815,-5.13551 -2.96075,-7.90451c-0.47126,-5.1709 3.71082,-9.92141 8.74649,-12.20001c5.03568,-2.2786 10.79693,-2.62463 16.38679,-3.00565c5.58985,-0.38103 11.36872,-0.88893 16.25576,-3.42964c0.79904,-0.41523 1.58992,-0.90285 2.09082,-1.6132c0.61603,-0.87262 0.71613,-1.9636 0.78443,-3.00406c1.30209,-19.8277 -2.58185,-39.64505 -7.78163,-58.91712c-1.69904,-6.29768 -3.55273,-12.64547 -3.58924,-19.13644s1.16334,-13.92059 6.99161,-17.8112" fill="#83C3B8"/>
     <path stroke="null" id="svg_36" d="m806.25292,718.18783c-5.78102,2.63696 -10.58171,6.76859 -15.29133,10.84136c-0.89742,0.77597 -1.87216,1.73689 -1.71837,2.86486c0.60615,0.1229 1.23121,0.16466 1.84982,0.1233c0.27752,0.48086 -0.2642,1.01939 -0.31532,1.56269c-0.08463,0.89649 1.14572,1.39643 2.11488,1.33041s1.98858,-0.40171 2.87612,-0.035c-0.44377,1.6474 1.07269,3.49049 2.90619,3.53225c1.14314,0.02585 2.19564,-0.53018 3.18027,-1.0691c-0.57093,1.42388 1.01598,2.94759 2.65015,3.07884c1.6346,0.13125 3.17168,-0.65864 4.58976,-1.42229c2.02037,-1.08779 4.04074,-2.17559 6.06111,-3.26338c1.39059,-0.74853 2.78719,-1.49984 4.28045,-2.05388c4.55453,-1.68916 9.94548,-1.52928 13.89859,-4.21993c2.32581,-1.58297 3.8964,-4.0847 4.23062,-6.73916c0.47126,-3.74106 -1.14787,-8.18133 -5.60789,-8.43508c-5.53787,-0.315 -11.36614,0.03222 -16.79146,1.10331c-3.07545,0.60773 -6.08861,1.51257 -8.9136,2.80082z" fill="#C35C52"/>
     <path stroke="null" id="svg_37" d="m829.4032,559.9628c-1.37298,-0.07796 -2.82672,-0.57313 -3.53039,-1.66729c-0.43861,-0.68211 -0.52926,-1.50303 -0.57909,-2.2957c-0.14219,-2.25633 -0.03308,-4.52658 0.32434,-6.76223c-1.44558,1.46524 -4.08757,1.52689 -5.89873,0.46574s-2.85292,-2.9985 -3.21464,-4.95454c-0.36172,-1.95604 -0.12802,-3.95941 0.10611,-5.93176c-1.986,1.402 -4.32986,2.55662 -6.82708,2.52599c-2.49722,-0.03063 -5.09496,-1.56865 -5.50522,-3.84924c-1.40004,1.58735 -2.97492,3.1035 -4.94804,4.0318c-1.97312,0.9287 -4.41578,1.19319 -6.39233,0.27006s-3.23869,-3.20929 -2.46758,-5.12994c-2.01479,2.65923 -5.29472,4.46374 -8.78043,4.83124c-1.27632,0.13443 -2.61106,0.07716 -3.77998,-0.41563c-1.70376,-0.7183 -2.85808,-2.30127 -3.30915,-3.98368c-0.45107,-1.6824 -0.27537,-3.45827 0.11341,-5.1538c0.74921,-3.26895 2.28672,-6.3804 4.46862,-9.04202c3.71726,-4.53493 9.23236,-7.66388 15.14483,-9.22736c5.91247,-1.56348 12.20771,-1.62911 18.28601,-0.76683c9.99746,1.41871 20.02027,5.71261 25.56373,13.54553c4.33802,6.12983 5.3626,13.87605 3.74089,20.96441c-1.37813,6.02364 -4.62327,12.99308 -12.5153,12.54524z" fill="#31353E"/>
     <g stroke="null" id="svg_38">
      <path stroke="null" id="svg_39" d="m747.18016,790.72526c-0.11685,0.03858 -0.54472,-0.71512 -1.24195,-2.35576c-0.69594,-1.64024 -1.63717,-4.17777 -2.65101,-7.72036c-1.0104,-3.54219 -2.08567,-8.09184 -3.02562,-13.72212c-0.47513,-2.81315 -0.91245,-5.90074 -1.34376,-9.24964c-0.21437,-1.67803 -0.44076,-3.45111 -0.45623,-5.33517c-0.01504,-1.87371 0.15293,-3.89816 0.99279,-5.89676c0.41713,-0.99194 1.01212,-1.93019 1.7566,-2.71611c0.73804,-0.79029 1.5955,-1.4378 2.48003,-1.96002c1.77507,-1.04882 3.60256,-1.69076 5.27797,-2.32673c3.42943,-1.29422 6.70851,-2.15252 9.71737,-2.80719c6.03405,-1.28149 11.01345,-1.85064 14.91243,-2.34701c7.80697,-0.92473 11.38891,-1.43183 11.44734,-1.19041c0.05671,0.2271 -3.4754,1.16853 -11.24414,2.40627c-3.87277,0.65109 -8.80964,1.34632 -14.70751,2.68906c-2.94313,0.68529 -6.11868,1.55314 -9.42654,2.82628c-1.684,0.6479 -3.4144,1.2791 -4.96007,2.20224c-1.54954,0.91558 -2.8207,2.18354 -3.50461,3.86157c-0.70582,1.66808 -0.88367,3.49089 -0.87164,5.24607c0.0073,1.76235 0.21394,3.48094 0.41542,5.14943c0.40639,3.3481 0.80291,6.41262 1.2282,9.21305c0.83942,5.60045 1.7682,10.12345 2.60419,13.66724c0.83899,3.54339 1.57746,6.10875 2.05517,7.8015c0.47857,1.69314 0.67317,2.52281 0.54558,2.56457z" fill="#E8E5DE"/>
     </g>
     <g stroke="null" id="svg_40">
      <path stroke="null" id="svg_41" d="m794.73728,772.54536c-0.26248,-0.0346 -0.42873,-0.41324 -0.58682,-1.16217c-0.16024,-0.74893 -0.31618,-1.86854 -0.62291,-3.38111c-0.16024,-0.75211 -0.29728,-1.39683 -0.41327,-1.94133c-0.10353,-0.54688 -0.16926,-0.9995 -0.17356,-1.37695c-0.01461,-0.75092 0.20706,-1.20513 0.62892,-1.36064c0.4094,-0.15114 0.94167,0.04057 1.44042,0.74018c0.4936,0.69404 0.95112,1.9103 1.05851,3.6631c0.02277,0.4375 0.02234,0.84399 0.00473,1.21944c-0.0232,0.37546 -0.05499,0.7191 -0.10611,1.03171c-0.09365,0.62563 -0.23542,1.12598 -0.3789,1.51217c-0.2947,0.77239 -0.60186,1.08859 -0.85102,1.05558z" fill="#E8E5DE"/>
     </g>
     <g stroke="null" id="svg_42">
      <path stroke="null" id="svg_43" d="m805.54066,763.60317c0.56105,0.21517 0.92147,0.76563 0.7999,1.65377c-0.11771,0.88296 -0.73245,2.10599 -2.02166,3.51634c-0.32348,0.3508 -0.63966,0.66302 -0.94338,0.94183c-0.30716,0.27603 -0.5967,0.52222 -0.87422,0.73501c-0.55074,0.42915 -1.03661,0.73859 -1.43656,0.96132c-0.80548,0.44029 -1.26944,0.53654 -1.44815,0.37108c-0.18644,-0.17222 -0.06229,-0.58586 0.30759,-1.3332c0.37074,-0.74614 0.97732,-1.83076 1.7755,-3.30236c0.19761,-0.36909 0.38191,-0.70836 0.55761,-1.01859c0.17184,-0.31222 0.34153,-0.59182 0.50133,-0.84597c0.3252,-0.50512 0.63236,-0.89768 0.94596,-1.18206c0.61861,-0.56995 1.26515,-0.71631 1.83608,-0.49716z" fill="#E8E5DE"/>
     </g>
     <g stroke="null" id="svg_44">
      <path stroke="null" id="svg_45" d="m800.33143,571.44808c0.06401,-0.02108 0.28439,0.22909 0.34625,0.86745c0.06616,0.62484 -0.17398,1.67087 -1.14701,2.65844c-0.48329,0.48841 -1.14229,0.96052 -2.01608,1.27513c-0.85102,0.29671 -1.85627,0.44824 -2.93197,0.44108c-1.07742,-0.00199 -2.22185,-0.15034 -3.42643,-0.33171c-0.61518,-0.09506 -1.28319,-0.20563 -1.97913,-0.48245c-0.34582,-0.14 -0.70109,-0.32892 -1.01985,-0.60137c-0.32005,-0.26926 -0.58682,-0.63199 -0.7316,-1.03529c-0.28954,-0.82092 -0.13231,-1.56786 0.01504,-2.18832c0.16496,-0.62245 0.34067,-1.17728 0.51852,-1.72735c0.3557,-1.09058 0.72171,-2.07536 1.05164,-2.97105c0.6663,-1.7886 1.16248,-3.2423 1.51087,-4.40646c0.69121,-2.32633 0.95198,-3.43282 1.14229,-3.40617c0.15165,0.01909 0.2032,1.16774 -0.28009,3.5935c-0.24315,1.21069 -0.66587,2.73241 -1.27546,4.54885c-0.30157,0.90882 -0.64052,1.89121 -0.9726,2.9623c-0.1641,0.53137 -0.3368,1.10331 -0.48157,1.6649c-0.13618,0.55404 -0.20921,1.11564 -0.04425,1.55433c0.15336,0.43989 0.5546,0.74336 1.06711,0.95535c0.51336,0.2104 1.10104,0.32296 1.68228,0.41841c1.19341,0.19568 2.26996,0.35438 3.24299,0.38341c0.9726,0.03381 1.83436,-0.06722 2.56767,-0.2804c0.70754,-0.21438 1.28964,-0.56876 1.72997,-0.94421c0.8884,-0.76126 1.20672,-1.57223 1.28964,-2.09962c0.08978,-0.53654 0.04339,-0.82569 0.14177,-0.84876z" fill="#31353E"/>
     </g>
     <g stroke="null" id="svg_46">
      <path stroke="null" id="svg_47" d="m668.30364,616.69518c-0.02148,0.08273 -0.72257,0.07 -2.00705,-0.51387c-0.63794,-0.29193 -1.39489,-0.75012 -2.23087,-1.39365c-0.41542,-0.32375 -0.85102,-0.69285 -1.30381,-1.10609c-0.22639,-0.20682 -0.45666,-0.42478 -0.69336,-0.65188l-0.17742,-0.17262c-0.03179,-0.02983 -0.02749,-0.02307 -0.04253,-0.0358c-0.02019,-0.01472 -0.03909,-0.03301 -0.05585,-0.04057l-0.04081,0.06841l-0.01074,0.01631l-0.10138,0.10977c-0.06916,0.07278 -0.13274,0.14915 -0.2105,0.22034c-0.29384,0.29551 -0.63365,0.56995 -1.0104,0.81972c-0.75307,0.49796 -1.66811,0.89569 -2.70901,1.07865c-0.26248,0.04574 -0.52195,0.07517 -0.80506,0.09426c-0.14778,0.00676 -0.31446,0.00875 -0.5052,-0.02028c-0.18816,-0.02864 -0.41284,-0.09665 -0.60744,-0.23029c-0.19546,-0.12966 -0.3368,-0.30745 -0.4283,-0.4741c-0.09107,-0.16824 -0.14177,-0.32972 -0.17656,-0.47927c-0.06873,-0.30705 -0.07561,-0.54211 -0.1074,-0.8058c-0.08807,-1.03927 -0.03952,-2.13263 0.11814,-3.25424c0.23413,-1.6474 0.62892,-3.12338 0.98076,-4.47408c0.17742,-0.67773 0.36687,-1.35666 0.65985,-1.99621c0.28697,-0.63518 0.69809,-1.24013 1.22992,-1.69871c0.52582,-0.45779 1.16978,-0.79109 1.8597,-0.90683c0.70281,-0.1225 1.36095,0.02824 1.87431,0.19529c0.5241,0.175 0.95412,0.35478 1.38457,0.51705c0.42487,0.16585 0.82396,0.32176 1.1977,0.46773c2.98738,1.17888 4.33029,1.81365 4.268,1.9632c-0.06229,0.14955 -1.51775,-0.21477 -4.58675,-1.19797c-0.3832,-0.12409 -0.79217,-0.25693 -1.22691,-0.39773c-0.43174,-0.13801 -0.90429,-0.30705 -1.35966,-0.4379c-0.46009,-0.12847 -0.90945,-0.20046 -1.34205,-0.10818c-0.43904,0.0883 -0.88625,0.32534 -1.26987,0.67654c-0.38534,0.3504 -0.68735,0.8058 -0.92448,1.35189c-0.23713,0.5429 -0.40382,1.16177 -0.57093,1.83473c-0.33551,1.35229 -0.7114,2.79963 -0.93221,4.35953c-0.1495,1.06234 -0.19589,2.07298 -0.12329,3.01958c0.02449,0.23068 0.03866,0.48841 0.07733,0.65626c0.03694,0.18137 0.10353,0.26728 0.12286,0.27483c0.00558,0.01591 0.12501,0.05171 0.32907,0.04057c0.21093,-0.01233 0.43647,-0.03381 0.6474,-0.06761c0.85446,-0.13642 1.62515,-0.45222 2.26567,-0.85274c0.32048,-0.20085 0.61217,-0.42239 0.8652,-0.66182c0.06659,-0.05608 0.12587,-0.1233 0.18773,-0.18455l0.09193,-0.09307l0.1641,-0.20404c0.22253,-0.27046 0.4253,-0.54131 0.6242,-0.80381c0.39136,0.41046 0.7694,0.8066 1.13412,1.18882c0.22253,0.23029 0.43647,0.45222 0.6431,0.6662c0.41627,0.42199 0.80978,0.79864 1.18138,1.13274c0.74663,0.66262 1.40648,1.15302 1.96109,1.49865c1.11221,0.68887 1.7334,0.8945 1.69173,1.01262z" fill="#31353E"/>
     </g>
     <g stroke="null" id="svg_48">
      <path stroke="null" id="svg_49" d="m796.75464,727.39651c0.07819,0.14756 -0.10181,0.37944 -0.54472,0.73023c-0.44119,0.35438 -1.15045,0.82529 -2.08481,1.54757c-0.92749,0.72944 -1.54954,1.2966 -2.0019,1.63905c-0.44849,0.34483 -0.72601,0.46932 -0.86992,0.37307c-0.13661,-0.09108 -0.11169,-0.38858 0.18429,-0.89211c0.29771,-0.49915 0.86992,-1.21228 1.88032,-2.00655c1.01727,-0.78671 1.87388,-1.18763 2.45555,-1.37456c0.58682,-0.18455 0.90773,-0.15671 0.98119,-0.0167z" fill="#31353E"/>
     </g>
     <g stroke="null" id="svg_50">
      <path stroke="null" id="svg_51" d="m805.33059,729.03834c0.04382,0.16068 -0.23241,0.36114 -0.84114,0.65347c-0.60615,0.29711 -1.55169,0.6833 -2.79793,1.3503c-1.23937,0.67813 -2.06677,1.25126 -2.64371,1.5949c-0.57351,0.34762 -0.89742,0.47211 -1.02758,0.35796c-0.12114,-0.1058 -0.02234,-0.43392 0.42873,-0.96251c0.45193,-0.52222 1.26343,-1.25524 2.6102,-1.99144c1.35407,-0.72506 2.4418,-1.01978 3.15492,-1.12836c0.71914,-0.105 1.07656,-0.02386 1.11651,0.12568z" fill="#31353E"/>
     </g>
     <ellipse stroke="null" id="svg_52" ry="3.463" rx="5.299" cy="1265.87071" cx="-391.98138" fill="#31353E" transform="matrix(0.03776113273501396,-0.39618006302416325,0.4279165451347828,0.034960573777556424,282.0616529085802,359.5401882279864) "/>
     <ellipse stroke="null" id="svg_53" ry="3.463" rx="5.299" cy="1259.08871" cx="-444.48638" fill="#31353E" transform="matrix(0.03776113273501396,-0.39618006302416325,0.4279165451347828,0.034960573777556424,264.3909034012364,336.27800312397386) "/>
     <g stroke="null" id="svg_54">
      <path stroke="null" id="svg_55" d="m782.89171,549.78724c-0.13317,-0.19926 0.00258,-0.55324 0.57565,-0.97484c0.56792,-0.41603 1.59808,-0.87103 3.0806,-1.09615c0.73503,-0.10898 1.37083,-0.15551 1.96109,-0.11932c0.58124,0.035 1.08042,0.16466 1.44085,0.34125c0.36258,0.17977 0.58081,0.39216 0.67618,0.56915c0.0958,0.17938 0.08162,0.3158 0.0043,0.41006c-0.16711,0.19608 -0.5095,0.18455 -1.04305,0.20443c-0.27365,0.01114 -0.61045,0.02824 -1.05551,0.07796c-0.43647,0.04813 -1.01126,0.13404 -1.67541,0.23267c-1.31885,0.20205 -2.20982,0.40688 -2.83617,0.49875c-0.62205,0.09466 -0.99021,0.06523 -1.12854,-0.14398z" fill="#31353E"/>
     </g>
     <g stroke="null" id="svg_56">
      <path stroke="null" id="svg_57" d="m815.2954,553.62336c-0.12114,0.04693 -0.26849,0.00756 -0.45193,-0.08153c-0.18472,-0.09028 -0.4094,-0.22671 -0.73074,-0.40887c-0.31747,-0.17858 -0.75909,-0.42995 -1.28878,-0.71472c-0.53269,-0.28239 -1.16591,-0.60853 -1.9409,-0.91677c-1.55255,-0.61489 -2.7408,-0.86347 -3.52094,-1.09058c-0.78272,-0.21716 -1.17536,-0.40927 -1.18009,-0.65665c-0.00558,-0.23228 0.38835,-0.47887 1.29694,-0.56876c0.89742,-0.07915 2.34128,0.00239 4.1533,0.72029c0.90257,0.35955 1.61612,0.78671 2.17288,1.1916c0.55589,0.41006 0.95283,0.78989 1.24109,1.16058c0.28439,0.3683 0.41627,0.70955 0.43174,0.9474c0.01675,0.23983 -0.06487,0.37307 -0.18258,0.41802z" fill="#31353E"/>
     </g>
     <g stroke="null" id="svg_58">
      <path stroke="null" id="svg_59" d="m812.22382,576.68422c0.04339,0.06921 -0.10611,0.23267 -0.46868,0.49677c-0.18215,0.13085 -0.41456,0.29193 -0.7084,0.47052c-0.29685,0.17222 -0.65083,0.3683 -1.06453,0.58944c-0.4167,0.21477 -0.90171,0.43671 -1.44558,0.68887c-0.55675,0.22392 -1.16462,0.49995 -1.86271,0.73739c-1.38329,0.50472 -3.06514,1.01581 -5.07692,1.42149c-2.01135,0.40569 -3.77096,0.58824 -5.25563,0.66222c-0.74148,0.0529 -1.41808,0.03619 -2.0251,0.04653c-0.60787,-0.01989 -1.14873,-0.035 -1.62429,-0.0696c-0.47513,-0.04176 -0.88539,-0.08392 -1.23293,-0.12608c-0.34711,-0.04892 -0.63107,-0.1058 -0.85532,-0.15512c-0.44849,-0.10063 -0.65771,-0.19171 -0.64954,-0.27125c0.00816,-0.07955 0.23284,-0.1408 0.68649,-0.17898c0.22725,-0.02028 0.51121,-0.02943 0.85532,-0.04256c0.34453,-0.01989 0.74835,-0.0354 1.21317,-0.04653c0.46439,-0.02108 0.99107,-0.04494 1.58219,-0.07159c0.5894,-0.0521 1.2441,-0.07 1.96109,-0.15074c1.43527,-0.12886 3.1313,-0.33728 5.07735,-0.72984c1.94605,-0.39216 3.58194,-0.85592 4.94546,-1.29143c0.68821,-0.20284 1.29178,-0.4383 1.85111,-0.61807c0.54945,-0.20324 1.03918,-0.38421 1.47135,-0.5441c0.42787,-0.16904 0.80205,-0.31023 1.12424,-0.42478c0.31876,-0.12051 0.58124,-0.22154 0.79689,-0.29074c0.43002,-0.1404 0.66157,-0.17142 0.70496,-0.10182z" fill="#31353E"/>
     </g>
     <g stroke="null" id="svg_60">
      <path stroke="null" id="svg_61" d="m740.76378,644.08096c-0.78916,-0.03301 -1.53794,-0.21279 -2.15741,-0.50194c-0.31145,-0.14477 -0.58425,-0.31739 -0.82611,-0.51745c-0.24959,-0.20046 -0.45923,-0.42796 -0.62033,-0.68648c-0.16926,-0.25853 -0.31145,-0.54728 -0.39351,-0.87501c-0.11599,-0.32534 -0.14649,-0.69364 -0.19804,-1.1045c-0.02749,-0.41404 -0.05155,-0.87183 -0.04382,-1.39246c-0.00902,-0.25733 -0.00988,-0.53018 -0.00387,-0.82131c-0.00988,-0.28637 -0.01547,-0.58944 -0.01632,-0.912c-0.01589,-0.32375 -0.03136,-0.63557 -0.0464,-0.93626c-0.02749,-0.30745 -0.0537,-0.60296 -0.07904,-0.88734c-0.07217,-0.56915 -0.14305,-1.11325 -0.2483,-1.60405c-0.08506,-0.50353 -0.22339,-0.93944 -0.32778,-1.35587c-0.13146,-0.39773 -0.25088,-0.76364 -0.37632,-1.07706c-0.13146,-0.30864 -0.25303,-0.57711 -0.36086,-0.80461c-0.11341,-0.22273 -0.21952,-0.39932 -0.30071,-0.5429c-0.16496,-0.28557 -0.25002,-0.42199 -0.21995,-0.45023c0.03007,-0.02864 0.1727,0.05051 0.48071,0.21318c0.15766,0.08273 0.35398,0.18574 0.59155,0.31063c0.23971,0.13324 0.5211,0.28995 0.84544,0.47052c0.32649,0.18614 0.68864,0.41086 1.11264,0.66381c0.39651,0.27165 0.8768,0.5604 1.3515,0.93029c0.49532,0.35836 1.00482,0.78433 1.55297,1.27473c0.26205,0.25057 0.53441,0.51745 0.81537,0.80143c0.26592,0.29074 0.53785,0.59978 0.81708,0.9283c0.26033,0.33529 0.50907,0.6658 0.74019,0.99194c0.21523,0.33091 0.41542,0.65665 0.59971,0.97484c0.34324,0.64393 0.61775,1.26001 0.78358,1.84508c0.18988,0.57989 0.24744,1.13155 0.27795,1.62473c-0.00258,0.49875 -0.05628,0.94541 -0.18344,1.33717c-0.13446,0.39296 -0.32091,0.72864 -0.55117,1.00745c-0.23756,0.27921 -0.52711,0.50154 -0.84114,0.67018c-0.63064,0.33728 -1.385,0.45819 -2.17416,0.42517z" fill="#31353E"/>
     </g>
     <g stroke="null" id="svg_62">
      <path stroke="null" id="svg_63" d="m887.69883,710.74708c-0.302,0.26728 -0.75522,0.37228 -1.3167,0.29472c-0.28267,-0.03699 -0.5851,-0.12727 -0.92534,-0.25415c-0.34969,-0.11773 -0.72687,-0.28239 -1.13026,-0.49955c-0.41241,-0.20762 -0.87551,-0.44108 -1.36095,-0.74137c-0.25604,-0.13364 -0.52067,-0.2804 -0.79517,-0.44108c-0.13661,-0.08114 -0.27666,-0.16466 -0.42014,-0.25017c-0.14778,-0.07955 -0.299,-0.16068 -0.45365,-0.24381c-0.60658,-0.35478 -1.29479,-0.70279 -2.04486,-1.09774c-0.38448,-0.17779 -0.78358,-0.3687 -1.19985,-0.57234c-0.4283,-0.18176 -0.87293,-0.37029 -1.33431,-0.56597c-0.47556,-0.17421 -0.93436,-0.34245 -1.37641,-0.50432c-0.45451,-0.1408 -0.89183,-0.27642 -1.31197,-0.40688c-0.8536,-0.22392 -1.65264,-0.43114 -2.39927,-0.55802c-0.18687,-0.03659 -0.36945,-0.07199 -0.54773,-0.10699c-0.17957,-0.02466 -0.35527,-0.04852 -0.52625,-0.07199c-0.34539,-0.04614 -0.6736,-0.09028 -0.98462,-0.13165c-0.6242,-0.04256 -1.18868,-0.09466 -1.68701,-0.11017c-0.50005,-0.00199 -0.93307,-0.00398 -1.30209,-0.00557c-0.36859,0.01153 -0.67188,0.03778 -0.91503,0.04892c-0.48587,0.02625 -0.72429,0.03142 -0.73417,-0.00756c-0.00988,-0.03898 0.20835,-0.11892 0.67317,-0.26887c0.23284,-0.07278 0.52625,-0.17301 0.8884,-0.27523c0.3673,-0.09028 0.79904,-0.19648 1.2978,-0.31898c0.50391,-0.11097 1.083,-0.20443 1.73942,-0.32574c0.33079,-0.03977 0.67961,-0.08153 1.04649,-0.12568c0.18515,-0.02108 0.37503,-0.04295 0.56964,-0.06523c0.19503,-0.01153 0.3948,-0.02307 0.59928,-0.035c0.82267,-0.06483 1.72352,-0.06085 2.71416,-0.03659c0.49403,0.0358 1.00825,0.07318 1.54224,0.11216c0.53269,0.07358 1.08601,0.15034 1.65908,0.22989c0.5662,0.11415 1.11565,0.2275 1.64491,0.34483c0.51938,0.14279 1.01985,0.28557 1.50099,0.42836c0.94424,0.32495 1.80729,0.65427 2.55392,1.03689c0.18816,0.09307 0.37203,0.18415 0.55117,0.27284c0.17441,0.09665 0.34067,0.19807 0.50391,0.29551c0.3252,0.19608 0.62978,0.38819 0.91374,0.57591c0.54343,0.40966 1.01598,0.78671 1.38887,1.16297c0.36472,0.38659 0.65298,0.74455 0.86821,1.07109c0.20663,0.33648 0.33036,0.65228 0.39823,0.92473c0.13403,0.54887 0.01418,0.95455 -0.28783,1.22183z" fill="#31353E"/>
     </g>
     <g stroke="null" id="svg_64">
      <path stroke="null" id="svg_65" d="m884.55765,698.76145c-0.0653,0.26131 -0.27365,0.48165 -0.61646,0.63398c-0.34238,0.14637 -0.82138,0.24063 -1.44472,0.26012c-0.31231,0.01233 -0.66243,0.01631 -1.05035,-0.00716c-0.3905,-0.00199 -0.81794,-0.04773 -1.29264,-0.07c-0.47556,-0.03381 -0.99451,-0.0704 -1.55899,-0.11057c-0.28439,-0.01591 -0.58038,-0.03261 -0.88797,-0.04972c-0.30974,-0.01114 -0.63107,-0.02267 -0.96443,-0.035c-0.33551,-0.00358 -0.65899,-0.00676 -0.97088,-0.00994c-0.3136,0.00517 -0.61518,0.01034 -0.90558,0.01511c-0.58038,0.02426 -1.11995,0.04614 -1.61183,0.09068c-0.49618,0.02943 -0.93952,0.09585 -1.34806,0.13483c-0.4021,0.05966 -0.7651,0.10779 -1.083,0.16068c-0.63451,0.11097 -1.10104,0.20284 -1.40691,0.26847c-0.30888,0.05966 -0.46396,0.07716 -0.48114,0.04057c-0.01718,-0.03659 0.10482,-0.12449 0.37289,-0.28358c0.26635,-0.16466 0.6852,-0.3854 1.27288,-0.67535c0.2947,-0.14239 0.6358,-0.29193 1.01985,-0.46614c0.3905,-0.15313 0.82052,-0.34642 1.31197,-0.51228c0.48759,-0.18137 1.03145,-0.35 1.63073,-0.5254c0.30286,-0.07796 0.61775,-0.15909 0.94467,-0.24341c0.3325,-0.0696 0.67704,-0.14239 1.03489,-0.21756c0.36258,-0.05807 0.71183,-0.11375 1.04863,-0.16744c0.34024,-0.03659 0.66759,-0.07199 0.98205,-0.1058c0.63193,-0.04455 1.21617,-0.06841 1.75059,-0.04852c0.53484,0.00398 1.01727,0.06722 1.4503,0.12011c0.43088,0.07438 0.81193,0.15432 1.141,0.25654c0.65728,0.20881 1.11007,0.46216 1.37598,0.73859c0.26721,0.26966 0.35184,0.54688 0.28654,0.80819z" fill="#31353E"/>
     </g>
     <g stroke="null" id="svg_66">
      <path stroke="null" id="svg_67" d="m855.93265,683.28851c0.07217,0.24978 -0.32434,0.5966 -1.25226,1.02575c-0.46439,0.21239 -1.06625,0.42478 -1.80557,0.66262c-0.74448,0.21398 -1.62686,0.4558 -2.6639,0.65904c-0.5168,0.11216 -1.07312,0.20682 -1.66682,0.30068c-0.59241,0.10182 -1.22563,0.17858 -1.89579,0.25853c-0.6693,0.0883 -1.38071,0.13284 -2.12734,0.19926c-0.74878,0.04097 -1.53493,0.09744 -2.36061,0.10938c-1.65092,0.05131 -3.45779,0.01074 -5.41286,-0.12011c-1.95464,-0.13364 -4.05921,-0.37188 -6.2961,-0.75927c-2.23946,-0.3858 -4.27831,-0.87183 -6.14102,-1.35507c-1.86357,-0.48523 -3.55358,-0.97444 -5.09668,-1.42109c-1.54309,-0.44625 -2.93884,-0.85632 -4.20098,-1.20711c-1.26128,-0.35597 -2.38939,-0.65109 -3.38647,-0.90563c-0.9988,-0.24659 -1.86658,-0.44944 -2.60805,-0.60853c-0.74062,-0.16347 -1.35579,-0.27603 -1.84209,-0.37864c-0.97775,-0.1758 -1.44772,-0.27364 -1.44257,-0.31341c0.00516,-0.03977 0.48458,-0.0183 1.48467,0.05489c0.49704,0.05131 1.12639,0.10659 1.88591,0.20324c0.76038,0.09267 1.65178,0.22034 2.68022,0.38222c1.02587,0.16943 2.1892,0.36989 3.48743,0.62086c1.29995,0.2462 2.73478,0.54091 4.31267,0.86228c1.57746,0.32216 3.29626,0.67575 5.16412,1.01779c1.8683,0.34046 3.88308,0.67376 6.05682,0.91001c2.17502,0.23864 4.20356,0.35597 6.07959,0.4033c1.87603,0.04415 3.60127,0.03261 5.17701,-0.0358c0.7883,-0.02068 1.5388,-0.07676 2.25407,-0.10898c0.71355,-0.05767 1.39446,-0.08472 2.03627,-0.14756c0.6431,-0.05409 1.25183,-0.09784 1.82448,-0.1583c0.57351,-0.0525 1.11393,-0.09824 1.61827,-0.15432c1.01298,-0.09108 1.88806,-0.1929 2.64242,-0.24341c0.74921,-0.07438 1.3777,-0.10023 1.88204,-0.10938c1.00825,-0.02307 1.54095,0.10659 1.61312,0.35676z" fill="#31353E"/>
     </g>
    </g>
   </g>
  </g>
  <g stroke="null" id="svg_118">
   <g stroke="null" transform="matrix(0.6242828288832725,0,0,0.4814126857122292,-20550.041349526404,-15045.521997321986) " id="svg_72">
    <path stroke="null" id="svg_73" d="m33615.08657,32401.8449c10.608,10.889 22.626,20.334 33.176,31.279c6.554,6.799 13.477,14.671 22.875,15.606c9.917,0.986 18.522,-6.103 27.234,-10.942c6.935,-3.851 14.575,-6.43 22.425,-7.569c6.477,8.615 2.65,21.221 -3.763,29.883c-13.091,17.68 -36.288,27.288 -58.046,24.043c-25.853,-3.856 -46.173,-23.444 -69.764,-34.699c-3.382,-1.614 -5.041,-5.432 -6.167,-9.006c-3.182,-10.102 -4.323,-20.728 -4.066,-31.29c0.197,-8.127 -0.302,-23.258 4.247,-30.269c9.224,-14.219 26.663,17.641 31.849,22.964z" fill="#C4464D"/>
    <path stroke="null" id="svg_74" d="m33790.59957,32296.0189l0,45.781l-0.567,0.676l-43.359,51.573l-39.306,52.256c0,0 -28.671,8.788 -44.392,10.108c-11.024,0.931 -19.292,-5.248 -23.244,-9.029c-1.584,-1.506 -1.855,-3.92 -0.675,-5.76l80.632,-125.466c0.893,-1.428 2.725,-1.964 4.247,-1.234l27.234,12.926l20.845,-34.625c1.126,-1.863 3.416,-2.678 5.473,-1.941l0.272,0.101l12.84,4.634z" fill="#E8E5DE"/>
    <path stroke="null" id="svg_75" d="m33790.59957,32296.0189l0,45.781l-0.567,0.676c-2.337,-0.039 -3.804,-2.702 -4.643,-4.961c-1.894,-5.085 -3.703,-10.194 -5.434,-15.333c-1.405,-4.154 -2.756,-8.362 -3.144,-12.717c-0.536,-6.017 0.776,-12.064 0.947,-18.081l12.841,4.635z" fill="#C9C7C2"/>
    <polygon stroke="null" id="svg_76" points="33631.355041503906,32463.641845703125 33728.155822753906,32313.520751953125 33788.737854003906,32338.958251953125 33788.737854003906,32293.552001953125 33793.347229003906,32293.552001953125 33793.347229003906,32344.227783203125 33712.351135253906,32462.067626953125 " fill="#019798"/>
    <path stroke="null" id="svg_77" d="m33582.06657,32117.3179c1.639,3.928 2.09,8.234 2.523,12.468c0.263,2.575 0.345,5.617 -1.673,7.238c-1.432,1.15 -3.531,1.142 -5.235,0.454c-1.703,-0.687 -3.102,-1.946 -4.463,-3.181c0.69,5.649 1.353,11.529 -0.495,16.911c-1.872,5.451 -6.374,9.931 -11.834,11.775c-2.022,0.683 -4.642,0.845 -5.91,-0.872c-0.707,-0.957 -0.767,-2.226 -0.906,-3.408c-0.988,-8.364 -7.034,-15.094 -10.975,-22.537c-3.503,-6.615 -1.711,-11.246 0.827,-17.81c1.463,-3.785 2.458,-7.974 4.457,-11.525c4.635,-8.235 15.416,-5.398 22.358,-1.606c4.988,2.725 9.041,6.869 11.326,12.093z" fill="#31353E"/>
    <ellipse stroke="null" id="svg_78" ry="18.432" rx="180.121" cy="33155.3929" cx="33515.93357" fill="#D3E4ED"/>
    <path stroke="null" id="svg_79" d="m33524.68557,33150.0799c-0.092,2.204 1.689,4.058 3.961,4.123c30.917,0.875 61.848,1.268 92.778,1.177c3.486,-0.01 7.314,-0.18 10.399,-1.521c1.83,-0.795 1.622,-3.392 -0.296,-3.959l-48.765,-14.426c-5.109,-1.511 -10.491,-3.189 -14.024,-7.075c-4.77,-5.248 -4.862,-12.968 -4.698,-19.962c0.337,-14.315 1.632,-31.38 1.969,-45.695c0.082,-3.477 -29.489,-3.411 -32.694,-2.469c-9.487,2.786 -5.351,10.982 -5.691,19.146c-0.978,23.552 -1.959,47.107 -2.939,70.661z" fill="#31353E"/>
    <path stroke="null" id="svg_80" d="m33463.49257,33055.0329c9.013,2.071 16.437,0.079 15.648,5.75c-0.258,1.852 -1.8,5.718 -2.496,7.461c-10.725,26.842 -14.231,56.364 -10.079,84.869c0.285,1.955 0.55,4.14 -0.656,5.731c-1.252,1.651 -3.599,2.018 -5.701,2.226c-18.681,1.85 -37.577,1.642 -56.209,-0.62c-1.265,-11.95 8.547,-21.886 14.489,-32.425c8.795,-15.6 9.381,-33.801 12.876,-50.878c1.373,-6.709 3.56,-19.777 6.546,-26.356c2.212,-4.875 17.983,2.495 25.582,4.242z" fill="#31353E"/>
    <path stroke="null" id="svg_81" d="m33447.15857,32657.9739c-8.026,30.265 -5.238,62.112 -12.059,92.615c-3.876,17.335 -10.799,33.981 -16.042,51.022c-8.049,26.162 -12.113,53.164 -16.154,80.067c-3.253,21.659 -6.507,43.317 -9.76,64.976c-1.601,10.662 -3.205,21.469 -1.698,32.142c2.005,14.208 9.411,27.398 11.988,41.531c1.721,9.435 1.278,19.229 4.433,28.358c8.201,23.724 43.427,35.96 67.191,23.338c14.399,-7.648 23.09,-21.764 28.408,-36.038s7.952,-29.308 13.912,-43.374c-8.096,24.229 -9.639,50.21 -4.461,75.079c0.973,4.673 2.363,9.604 6.234,12.838c3.594,3.002 8.705,3.994 13.588,4.369c28.452,2.187 56.208,-13.182 72.051,-34.58c15.842,-21.398 21.206,-47.88 21.227,-73.599c0.021,-25.72 -4.904,-51.203 -7.931,-76.778c-5.494,-46.428 -4.732,-93.251 -3.963,-139.937c0.941,-57.171 1.883,-114.342 2.824,-171.513c0.427,-25.961 0.757,-52.516 -8.475,-77.112c-1.326,-3.532 -2.923,-7.118 -5.863,-9.743c-6.921,-6.179 -18.248,-4.906 -27.768,-3.031c-19.255,3.791 -38.343,8.267 -57.205,13.415c-8.555,2.335 -17.289,4.916 -24.196,10.027c-9.119,6.747 -13.921,17.028 -18.036,26.99c-17.276,41.818 -17.142,65.454 -28.245,108.938" fill="#894F58"/>
    <path stroke="null" id="svg_82" d="m33647.30857,32433.5879c-0.155,4.643 -1.313,9.251 -3.371,13.416c13.582,-2.327 26.19,-10.7 39.933,-9.688c1.448,0.107 3.317,0.834 3.13,2.273c-0.094,0.724 -0.716,1.248 -1.293,1.696c-3.381,2.624 -6.762,5.249 -10.142,7.873c4.758,-0.559 9.516,-1.118 14.274,-1.677c0.617,-0.073 1.296,-0.131 1.809,0.221c0.547,0.375 0.726,1.104 0.73,1.768c0.022,3.075 -2.686,5.488 -5.468,6.799c-2.781,1.311 -5.901,2.007 -8.329,3.895c1.804,-0.037 3.609,-0.073 5.413,-0.11c-2.689,5.785 -8.276,9.717 -14.093,12.337c-12.104,5.451 -25.706,6.272 -38.96,7.012c-1.663,0.093 -3.356,0.183 -4.971,-0.224c-1.931,-0.487 -3.623,-1.655 -5.116,-2.972c-3.114,-2.747 -7.587,-7.75 -7.041,-12.291c0.541,-4.503 6.109,-7.664 9.092,-10.554c7.491,-7.259 14.356,-15.959 24.403,-19.774z" fill="#F29681"/>
    <path stroke="null" id="svg_83" d="m33612.66257,32563.5169c-3.975,4.348 -10.295,6.093 -16.237,7.618c-29.887,7.684 -73.946,11.743 -106.359,4.853c-4.129,-0.874 -8.069,-1.93 -11.766,-3.177c-1.887,-0.639 -3.821,-1.387 -5.122,-2.788c-1.591,-1.721 -1.949,-4.105 -2.245,-6.355c-2.095,-15.937 10.237,-66.629 7.591,-84.453c-0.216,-1.46 -0.532,-2.696 -0.967,-3.678c-5.095,-11.543 -10.202,-23.112 -16.595,-34.092c-4.699,-8.072 -10.075,-15.794 -15.117,-23.693c-7.372,-11.55 -14.027,-23.49 -19.923,-35.737c-3.709,-7.691 -7.117,-15.506 -10.218,-23.42c-5.38,-13.738 -9.859,-28.747 -5.43,-42.827c3.913,-12.424 14.092,-22.103 22.958,-32.267c0.701,-0.801 1.39,-1.61 2.072,-2.419c10.811,-12.883 18.972,-27.626 23.925,-43.224c25.373,0.05 47.102,14.789 66.001,30.241c26.582,21.733 50.796,45.912 72.159,72.063c3.794,4.641 7.61,11.608 8.465,17.369c1.132,7.603 -3.347,16.511 -5.107,18.725c-10.491,13.168 -3.647,39.299 -1.352,53.819c2.657,16.591 5.619,33.141 8.238,49.733c0.793,5.026 1.552,10.056 2.265,15.093c1.209,8.569 2.276,17.154 3.108,25.769c0.782,8.092 1.402,16.203 1.864,24.318c0.338,6.004 2.39,13.495 -2.208,18.529z" fill="#E8E5DE"/>
    <path stroke="null" id="svg_84" d="m33560.38157,32400.8099c-0.528,31.139 -1.056,62.271 -1.584,93.41c-0.132,7.88 -0.264,15.752 -0.404,23.632c-0.722,42.683 -1.444,85.359 -2.174,128.043c-0.644,38.119 -1.304,76.362 -6.855,114.077c-0.38,2.616 -0.885,5.427 -2.779,7.282c-1.654,1.622 -4.052,2.189 -6.327,2.647c-30.899,6.219 -63.234,5.178 -93.667,-3.005c-4.619,-1.242 -9.627,-2.981 -11.987,-7.142c-1.84,-3.253 -1.607,-7.236 -1.312,-10.962c5.722,-71.595 15.768,-142.841 30.076,-213.224c1.809,-8.897 3.688,-17.872 5,-26.877c1.731,-11.785 2.5,-23.624 0.885,-35.402c-0.691,-5.038 -1.793,-9.937 -3.23,-14.704c-10.294,-34.253 -37.863,-62.24 -55.851,-94.031c-4.712,-8.322 -8.866,-17.258 -9.503,-26.8c-1.126,-16.886 8.765,-32.311 18.252,-46.332c6.281,-9.278 12.561,-18.547 18.842,-27.824c4.332,-6.405 8.672,-12.818 13.012,-19.223c2.189,-3.237 4.705,-6.708 8.493,-7.686c1.623,-0.419 3.276,-0.287 4.837,0.241c2.896,0.97 5.458,3.315 6.925,6.071c0.202,0.381 0.396,0.761 0.567,1.133c3.936,8.315 1.669,14.347 8.439,22.149c8.02,9.238 15.985,18.5 23.655,28.026c0.023,0.031 0.047,0.055 0.07,0.086c15.317,19.021 29.757,38.74 43.243,59.088c4.472,6.739 8.889,13.664 11.187,21.419c2.469,8.347 2.337,17.213 2.19,25.908z" fill="#EB545D"/>
    <g stroke="null" id="svg_85">
     <path stroke="null" id="svg_86" d="m33515.93357,32417.9819c0.035,-0.663 0.835,-1.278 2.373,-1.781c0.77,-0.283 1.727,-0.552 2.872,-0.832c0.573,-0.158 1.193,-0.312 1.862,-0.461c0.666,-0.166 1.382,-0.344 2.15,-0.535c0.766,-0.178 1.577,-0.424 2.443,-0.631c0.861,-0.241 1.774,-0.497 2.74,-0.767c1.922,-0.589 4.053,-1.242 6.381,-2.093c4.657,-1.685 10.126,-4.009 16.41,-7.198c6.295,-3.199 11.707,-6.171 16.386,-8.508c4.674,-2.354 8.596,-4.117 11.752,-5.34c1.576,-0.617 2.961,-1.099 4.144,-1.486c1.189,-0.375 2.178,-0.653 2.97,-0.848c1.597,-0.359 2.394,-0.423 2.477,-0.199c0.083,0.224 -0.556,0.717 -1.948,1.515c-0.691,0.414 -1.566,0.913 -2.627,1.513c-1.056,0.613 -2.297,1.323 -3.714,2.172c-2.84,1.687 -6.374,3.928 -10.674,6.783c-4.314,2.839 -9.363,6.338 -15.595,10.122c-6.247,3.788 -12.012,6.559 -17.129,8.36c-2.555,0.91 -4.958,1.543 -7.143,2.019c-1.102,0.211 -2.145,0.401 -3.138,0.535c-1,0.109 -1.93,0.233 -2.817,0.27c-0.887,0.033 -1.709,0.07 -2.477,0.052c-0.77,-0.031 -1.48,-0.075 -2.129,-0.133c-1.302,-0.15 -2.366,-0.376 -3.198,-0.635c-1.667,-0.579 -2.406,-1.231 -2.371,-1.894z" fill="#31353E"/>
    </g>
    <g stroke="null" id="svg_87">
     <path stroke="null" id="svg_88" d="m33475.27757,32369.5529c-0.481,-0.089 -0.676,-1.286 -0.815,-3.757c-0.074,-1.235 -0.126,-2.787 -0.212,-4.674c-0.042,-0.939 -0.088,-1.965 -0.138,-3.08c-0.062,-1.108 -0.128,-2.304 -0.2,-3.592c-0.083,-1.281 -0.16,-2.469 -0.231,-3.57c-0.078,-1.098 -0.125,-2.107 -0.166,-3.031c-0.067,-1.85 -0.055,-3.364 0.09,-4.582c0.272,-2.431 1.059,-3.692 2.178,-3.865c1.092,-0.17 2.288,0.81 3.119,3.273c0.41,1.229 0.736,2.825 0.886,4.804c0.083,0.989 0.109,2.073 0.103,3.252c-0.017,1.179 -0.083,2.451 -0.202,3.817c-0.129,1.365 -0.292,2.627 -0.477,3.79c-0.195,1.161 -0.394,2.224 -0.617,3.189c-0.43,1.932 -0.9,3.478 -1.321,4.681c-0.864,2.401 -1.542,3.43 -1.997,3.345z" fill="#31353E"/>
    </g>
    <g stroke="null" id="svg_89">
     <path stroke="null" id="svg_90" d="m33479.79557,32382.0509c-0.444,-0.16 -0.683,-0.831 -0.623,-2.119c0.071,-1.281 0.428,-3.199 1.469,-5.676c1.053,-2.473 2.228,-4.029 3.292,-4.794c1.066,-0.771 2.017,-0.765 2.695,-0.268c0.687,0.502 0.969,1.38 0.698,2.571c-0.264,1.202 -1.098,2.704 -2.455,4.739c-2.705,4.074 -4.175,5.87 -5.076,5.547z" fill="#31353E"/>
    </g>
    <path stroke="null" id="svg_91" d="m33626.27757,32698.3929c-0.396,22.53 -2.43,54.049 -28.64,61.409c-0.994,0.279 -2.088,0.497 -3.043,0.093c-7.826,-3.331 -3.952,-39.609 -3.827,-47.039c0.272,-16.862 1.242,-33.701 2.368,-50.525c3.036,-45.3 -1.522,-91.92 -4.643,-137.22c-0.419,-6.094 -0.846,-12.188 -1.273,-18.283c-0.349,-5.093 -0.699,-10.193 -1.04,-15.286c-2.352,-34.936 -4.332,-69.902 -4.223,-104.931c0.047,-15.411 0.388,-31.38 -5.807,-45.486c-2.857,-6.498 -7.003,-12.344 -11.28,-18.003c-9.984,-13.213 -20.884,-25.736 -32.568,-37.459c-0.831,-0.831 -1.661,-1.654 -2.492,-2.477c-11.971,-11.785 -28.942,-21.256 -39.633,-33.802c-6.863,-8.043 -3.206,-8.058 6.188,-5.077c7.499,2.383 14.673,6.452 21.28,10.636c9.704,6.141 18.578,13.485 27.087,21.21c3.525,3.191 6.995,6.451 10.426,9.72c14.238,13.54 28.298,27.265 42.164,41.178c6.762,6.785 13.834,14.301 15.17,23.78c2.042,14.479 -9.867,27.219 -12.033,41.674c-0.986,6.568 0.085,13.245 1.195,19.781c3.952,22.638 8.4,45.215 12.46,67.845c0.839,4.689 1.669,9.378 2.469,14.075c2.764,16.218 5.233,32.483 7.088,48.832c5.86,51.704 3.515,103.417 2.607,155.355z" fill="#EB545D"/>
    <path stroke="null" id="svg_92" d="m33543.81357,32283.8459c-2.018,2.764 -6.071,2.927 -9.433,2.29c-0.699,-0.132 -1.39,-0.295 -2.081,-0.473c-0.831,-0.831 -1.661,-1.654 -2.492,-2.477c-11.971,-11.785 -28.942,-21.256 -39.633,-33.802c-6.863,-8.043 -3.206,-8.058 6.188,-5.077c7.499,2.383 14.673,6.452 21.28,10.636c9.704,6.141 18.578,13.485 27.087,21.21c0.047,0.225 0.078,0.458 0.109,0.691c0.334,2.398 0.404,5.045 -1.025,7.002z" fill="#C4464D"/>
    <path stroke="null" id="svg_93" d="m33537.67457,32227.0089c0.929,5.284 1.874,10.625 4.009,15.547c1.092,2.518 2.511,4.993 2.679,7.732s-1.475,5.86 -4.203,6.152c-1.933,0.207 -3.689,-1.015 -5.319,-2.075c-1.631,-1.061 -3.331,-2.015 -5.087,-2.853c-0.557,-0.266 -1.149,-0.526 -1.765,-0.485c-0.921,0.062 -1.647,0.764 -2.395,1.305c-2.37,1.712 -5.725,1.937 -8.303,0.558c-0.694,-0.371 -1.368,-0.859 -2.152,-0.924c-1.275,-0.105 -2.324,0.91 -3.445,1.527c-2.771,1.524 -6.191,0.625 -9.213,-0.307c-2.895,-0.893 -5.977,-1.911 -7.829,-4.309c-1.182,-1.531 -1.716,-3.454 -2.138,-5.341c-1.067,-4.775 -1.581,-9.673 -1.529,-14.565c0.031,-2.847 0.401,-6.007 2.55,-7.875c0.382,-0.332 0.828,-0.618 1.329,-0.692c0.347,-0.051 0.701,0.002 1.048,0.055c1.502,0.23 3.004,0.459 4.507,0.689c2.607,0.398 5.26,0.811 7.63,1.968c2.162,1.055 4.007,2.693 6.206,3.669c4.869,2.162 10.632,0.77 15.732,2.307" fill="#31353E"/>
    <path stroke="null" id="svg_94" d="m33503.76157,32294.3959c-0.683,1.933 -1.685,3.781 -3.206,5.147c-2.717,2.414 -6.762,2.911 -10.279,1.995c-3.525,-0.908 -6.599,-3.059 -9.355,-5.426c-7.499,-6.452 -13.237,-14.79 -20.954,-20.977c-6.436,-5.147 -14.044,-8.633 -21.808,-11.397c-0.132,-0.047 -0.264,-0.093 -0.396,-0.139c4.332,-6.405 8.672,-12.818 13.012,-19.223c2.189,-3.237 4.705,-6.708 8.493,-7.686c1.623,-0.419 3.276,-0.287 4.837,0.241c0.955,0.699 1.863,1.444 2.725,2.228c1.7,1.553 3.268,3.23 4.767,4.977c3.936,8.315 1.669,14.347 8.439,22.149c8.02,9.238 15.985,18.5 23.655,28.026c0.024,0.031 0.047,0.054 0.07,0.085z" fill="#C4464D"/>
    <path stroke="null" id="svg_95" d="m33511.53057,32194.1669c-0.544,1.571 -1.964,3.062 -3.178,4.392c-1.634,1.794 -2.999,3.749 -4.133,5.811c-0.661,1.205 -1.241,2.455 -1.75,3.731c-1.687,4.24 -2.553,8.819 -2.839,13.398c-0.116,1.91 -0.134,3.812 -0.072,5.695c0.196,5.392 0.991,10.739 1.83,16.086c0.714,4.678 1.473,9.355 1.857,14.077c0.116,1.402 0.152,2.955 -0.804,4.061c-1.062,1.223 -2.972,1.464 -4.669,1.553c-12.926,0.687 -26.003,-1.437 -37.857,-6.15c-1.089,-0.428 -2.223,-0.928 -2.901,-1.83c-0.955,-1.268 -0.732,-2.981 -0.482,-4.508c1.571,-9.748 2.553,-19.567 2.928,-29.413c0.054,-1.232 0.089,-2.473 0.116,-3.704c0.25,-10.239 -2.963,-22.602 -0.661,-32.537c5.044,-21.825 37.348,-1.794 48.667,3.598c1.634,0.776 3.392,1.705 3.972,3.303c0.307,0.831 0.253,1.643 -0.024,2.437z" fill="#F29681"/>
    <path stroke="null" id="svg_96" d="m33499.63257,32221.4999c-0.116,1.91 -0.134,3.812 -0.072,5.695c0.196,5.392 0.991,10.739 1.83,16.086c-0.643,-0.205 -1.259,-0.446 -1.839,-0.723c-5.195,-2.446 -9.4,-6.534 -13.497,-10.551c-2.642,-2.589 -5.311,-5.204 -7.409,-8.257c-3.223,-4.677 -5.008,-10.176 -6.445,-15.666c-1.91,-7.337 -3.294,-14.818 -4.124,-22.361l9.061,-0.187c6.008,-0.393 11.765,2.616 16.425,6.427c4.258,3.472 7.846,7.703 10.658,12.408c-0.661,1.205 -1.241,2.455 -1.75,3.731c-1.687,4.24 -2.553,8.819 -2.838,13.398z" fill="#EE7471"/>
    <path stroke="null" id="svg_97" d="m33558.63257,32168.7429c-0.832,4.495 -2.262,8.98 -1.643,13.582c0.698,5.182 3.903,9.852 7.019,14.303c1.997,2.853 4.149,6.158 6.188,9.135c0.553,0.808 0.236,1.876 -0.694,2.168c-3.163,0.994 -7.343,0.047 -10.563,0.214c-1.636,0.085 -2.843,0.4 -3.799,0.872c-2.598,1.281 -4.172,6.454 -4.771,8.47c-0.785,2.643 -3.579,3.15 -3.489,4.038c0.113,1.117 -2.668,4.712 -3.52,5.447c-5.365,4.635 -2.688,15.1 -11.642,16.618c-1.885,0.32 -3.857,0.074 -5.729,-0.491c-10.941,-3.307 -20.725,-9.329 -30.384,-15.291c-4.276,-2.64 -8.586,-5.304 -12.252,-8.673c-8.901,-8.179 -13.17,-19.685 -16.026,-30.875c-0.345,-1.352 -0.686,-2.734 -1.456,-3.942c-0.628,-0.986 -1.513,-1.809 -2.361,-2.642c-7.261,-7.132 -12.765,-17.08 -10.342,-26.263c2.441,-9.254 12.194,-14.946 22.049,-17.245c9.855,-2.299 20.349,-2.091 30.26,-4.208c7.301,-1.559 14.165,-4.355 21.346,-6.282c6.389,-1.715 17.716,-4.983 22.33,1.75c5.093,7.43 8.735,15.434 9.864,24.084c0.667,5.099 0.537,10.251 -0.385,15.231z" fill="#F29681"/>
    <g stroke="null" id="svg_98">
     <path stroke="null" id="svg_99" d="m33532.74557,32177.7059c0.3,-0.161 0.79,0.306 1.772,1.13c0.493,0.409 1.125,0.902 1.962,1.36c0.834,0.451 1.882,0.882 3.141,0.98c1.241,0.094 2.33,-0.2 3.184,-0.547c0.857,-0.362 1.5,-0.793 1.982,-1.176c0.963,-0.769 1.388,-1.287 1.707,-1.149c0.263,0.096 0.388,0.915 -0.496,2.246c-0.443,0.651 -1.168,1.385 -2.253,1.989c-1.08,0.586 -2.541,1.071 -4.301,0.941c-1.74,-0.138 -3.107,-0.795 -4.098,-1.481c-0.997,-0.699 -1.645,-1.451 -2.061,-2.089c-0.826,-1.297 -0.8,-2.073 -0.539,-2.204z" fill="#31353E"/>
    </g>
    <g stroke="null" id="svg_100">
     <path stroke="null" id="svg_101" d="m33526.56657,32164.3369c-0.123,-0.102 -0.081,-0.377 0.155,-0.848c0.12,-0.233 0.279,-0.524 0.506,-0.85c0.237,-0.315 0.53,-0.677 0.881,-1.088c0.361,-0.399 0.808,-0.816 1.309,-1.29c0.539,-0.422 1.108,-0.943 1.82,-1.392c1.386,-0.953 3.159,-1.923 5.372,-2.665c2.213,-0.743 4.212,-1.038 5.892,-1.113c0.839,-0.072 1.607,0.001 2.292,0.013c0.685,0.076 1.293,0.139 1.822,0.24c0.528,0.116 0.98,0.228 1.359,0.337c0.377,0.123 0.68,0.259 0.916,0.373c0.471,0.234 0.671,0.428 0.635,0.583c-0.037,0.155 -0.306,0.257 -0.811,0.299c-0.253,0.024 -0.563,0.02 -0.936,0.022c-0.376,0.017 -0.813,0.022 -1.312,0.014c-0.499,0.014 -1.063,0.031 -1.697,0.049c-0.631,0.072 -1.33,0.069 -2.092,0.193c-1.524,0.18 -3.323,0.508 -5.334,1.182c-2.011,0.674 -3.644,1.497 -4.968,2.273c-0.682,0.361 -1.238,0.784 -1.785,1.107c-0.516,0.367 -0.977,0.695 -1.383,0.984c-0.393,0.307 -0.744,0.567 -1.055,0.78c-0.299,0.224 -0.544,0.414 -0.76,0.547c-0.427,0.271 -0.703,0.352 -0.826,0.25z" fill="#31353E"/>
    </g>
    <g stroke="null" id="svg_102">
     <path stroke="null" id="svg_103" d="m33528.07757,32216.0749c0.088,-0.155 0.75,0.102 2.16,0.636c1.407,0.536 3.574,1.35 6.716,2.148c3.145,0.787 5.445,1.129 6.934,1.386c1.492,0.246 2.188,0.388 2.185,0.555c-0.003,0.152 -0.718,0.3 -2.263,0.259c-1.54,-0.052 -3.915,-0.273 -7.138,-1.079c-3.222,-0.818 -5.421,-1.784 -6.776,-2.526c-1.361,-0.744 -1.888,-1.258 -1.818,-1.379z" fill="#31353E"/>
    </g>
    <ellipse stroke="null" id="svg_104" ry="9.437" rx="4.501" cy="37848.23167" cx="-25748.89003" fill="#FABCAA" transform="matrix(0.1605,-0.987,0.987,0.1605,310.7234,704.7437) "/>
    <path stroke="null" id="svg_105" d="m33558.79757,32494.2209c-0.132,7.88 -0.264,15.752 -0.404,23.632c-7.492,2.787 -16.427,4.293 -22.918,5.877c-15.527,3.796 -32.397,6.521 -47.109,0.264c-7.802,-3.315 -14.331,-8.905 -19.999,-15.302c1.731,-11.785 2.5,-23.624 0.885,-35.402c-0.691,-5.038 -1.793,-9.937 -3.23,-14.704c0.047,-0.047 0.093,-0.085 0.14,-0.124c2.64,-2.259 6.281,-4.643 9.293,-2.904c0.908,0.528 1.591,1.366 2.251,2.189c5.528,6.785 11.599,13.136 18.12,18.966c7.119,6.366 14.984,12.212 24.075,15.108c8.532,2.725 17.685,2.702 26.621,2.143c4.1,-0.256 8.277,-0.605 12.275,0.257z" fill="#31353E"/>
    <path stroke="null" id="svg_106" d="m33616.58057,32494.2049c-9.782,4.216 -19.572,8.423 -29.361,12.624c-0.349,-5.093 -0.699,-10.193 -1.04,-15.286c8.571,-2.935 16.979,-6.335 25.177,-10.178c0.908,-0.419 1.825,-0.854 2.756,-1.235c0.838,4.689 1.669,9.378 2.468,14.075z" fill="#31353E"/>
    <path stroke="null" id="svg_107" d="m33610.69657,32488.3209c-2.865,1.397 -5.745,2.756 -8.649,4.083c-20.76,9.503 -42.427,17.297 -64.569,23.57c-10.434,2.95 -22.041,5.466 -32.281,3.121c-2.508,-0.574 -4.93,-1.436 -7.228,-2.655c-7.701,-4.068 -12.561,-11.389 -17.095,-18.407c-24.703,-38.204 -49.717,-77.107 -61.378,-120.295c-5.256,-19.424 -8.191,-42.326 2.539,-60.819c3.967,-6.832 8.811,-9.937 13.734,-10.434c10.271,-1.033 20.884,9.339 24.587,21.116c2.252,7.151 2.865,14.642 3.959,22.018c4.984,33.375 19.983,64.631 34.827,95.375c2.647,5.481 5.287,10.962 7.934,16.443c3.913,8.097 8.85,17.064 18.097,19.595c4.65,1.273 9.65,0.652 14.44,-0.116c19.191,-3.067 37.987,-8.268 55.858,-15.434c3.874,-1.553 7.709,-3.198 11.498,-4.937c3.625,-1.661 7.298,-3.439 11.304,-3.983c3.998,-0.544 8.493,0.396 10.97,3.323c1.39,1.654 2.019,3.765 2.104,5.862c0.434,10.361 -10.652,17.705 -20.651,22.574z" fill="#EB545D"/>
    <path stroke="null" id="svg_108" d="m33547.64657,32144.8849c-2.698,1.951 -7.059,2.799 -8.933,0.047c-0.774,-1.136 -0.875,-2.585 -0.952,-3.957c-0.128,-2.288 -0.256,-4.576 -0.384,-6.863c-2.145,2.315 -3.678,5.114 -5.401,7.758c-7.935,12.178 -20.363,21.355 -34.338,25.354c-0.615,0.176 -1.335,0.325 -1.846,-0.06c-0.405,-0.305 -0.535,-0.845 -0.629,-1.343c-0.782,-4.163 -1.015,-8.782 -3.884,-11.899c-3.96,-4.301 -11.282,-3.517 -16.03,-0.106c-6.533,4.693 -9.613,13.692 -7.327,21.404c0.417,1.408 0.874,3.223 -0.299,4.105c-0.42,0.315 -0.96,0.413 -1.481,0.479c-6.219,0.779 -12.762,-2.119 -16.364,-7.248c-3.587,-5.107 -4.163,-11.699 -4.214,-17.94c-0.037,-4.597 0.152,-9.235 1.266,-13.694c2.699,-10.806 10.705,-19.718 20.148,-25.625c9.443,-5.908 20.286,-9.148 31.094,-11.84c15.903,-3.96 33.66,-7.602 50.002,-4.105c12.043,2.577 14.025,12.37 11.628,23.19c-1.749,7.903 -5.233,17.409 -12.056,22.343z" fill="#31353E"/>
    <path stroke="null" id="svg_109" d="m33553.15757,32103.3839c-21.263,-25.537 -58.509,-35.09 -90.597,-26.454c-12.874,3.465 -25.363,9.824 -33.802,20.146c-15.745,19.258 -14.545,47.994 -29.006,68.234c-5.382,7.532 -12.681,13.495 -18.402,20.772c-5.721,7.278 -9.897,16.771 -7.448,25.699c0.11,0.401 0.237,0.808 0.487,1.14c1.418,1.895 4.758,-0.216 6.733,1.087c1.394,0.92 1.316,2.957 2.011,4.475c2.438,5.323 11.325,1.43 16.067,4.864c1.537,1.113 2.43,2.881 3.578,4.392c2.152,2.835 5.235,4.799 8.316,6.581c20.225,11.695 43.457,18.139 66.817,18.533c1.185,0.02 2.482,-0.013 3.388,-0.777c0.653,-0.55 0.984,-1.39 1.203,-2.216c1.058,-3.987 0.064,-8.197 -0.93,-12.201c-4.332,-17.458 -7.187,-34.704 -11.519,-52.161c-2.018,-8.13 -5.529,-16.673 -4.653,-25.004s5.261,-16.801 12.902,-20.232c7.081,-3.179 15.29,-1.52 23.009,-2.332c12.892,-1.357 23.907,-9.52 34.209,-17.389" fill="#31353E"/>
    <path stroke="null" id="svg_110" d="m33480.34257,32157.1239c-0.192,-0.007 -0.395,-0.003 -0.559,0.097c-0.567,0.345 -0.093,1.209 0.396,1.658c0.491,0.452 0.99,0.929 1.246,1.546c0.256,0.616 0.204,1.412 -0.3,1.849c-0.595,0.517 -1.491,0.343 -2.276,0.266s-1.79,0.147 -1.941,0.92c-0.232,1.19 1.861,2.114 1.296,3.187c-0.224,0.425 -0.761,0.552 -1.153,0.831c-0.305,0.218 -0.524,0.534 -0.73,0.847c-1.415,2.154 -2.522,4.51 -3.277,6.974c-0.07,0.228 -0.137,0.471 -0.078,0.701c0.049,0.193 0.181,0.353 0.317,0.499c0.77,0.83 1.842,1.444 2.974,1.421c0.873,-0.018 1.694,-0.407 2.443,-0.854c2.982,-1.783 5.181,-4.727 6.263,-8.009c0.792,-2.401 1.5,-6.661 0.348,-9.065c-0.827,-1.728 -3.152,-2.799 -4.969,-2.868z" fill="#EE7471"/>
    <path stroke="null" id="svg_111" d="m33610.69657,32488.3209c-2.865,1.397 -5.745,2.756 -8.649,4.083c-0.264,-4.712 -0.691,-9.409 -1.809,-13.99c-1.095,-4.472 -2.834,-8.742 -4.767,-12.934c3.874,-1.553 7.709,-3.198 11.498,-4.937c3.625,-1.661 7.298,-3.439 11.304,-3.983c3.998,-0.544 8.493,0.396 10.97,3.323c1.39,1.654 2.019,3.765 2.104,5.862c0.434,10.363 -10.652,17.707 -20.651,22.576z" fill="#C4464D"/>
    <g stroke="null" id="svg_112">
     <path stroke="null" id="svg_113" d="m33578.79757,32696.1579c0.408,0.173 0.545,0.986 0.395,2.446c-0.072,0.731 -0.229,1.617 -0.434,2.677c-0.192,1.066 -0.452,2.296 -0.784,3.693c-0.639,2.789 -1.444,6.301 -2.422,10.566c-0.968,4.251 -2.016,9.27 -3.092,15.102c-1.078,5.832 -2.171,12.481 -3.237,20.005c-1.082,7.516 -2.146,15.918 -3.309,25.203c-1.168,9.29 -2.443,19.44 -3.83,30.477c-1.402,11.05 -2.929,23 -4.769,35.861c-1.789,12.863 -3.756,24.788 -5.674,35.801c-1.04,5.497 -2.009,10.776 -3.035,15.82c-0.536,2.518 -1.061,4.982 -1.575,7.392c-0.522,2.408 -0.99,4.769 -1.565,7.056c-0.549,2.29 -1.086,4.527 -1.61,6.712c-0.541,2.18 -0.997,4.323 -1.585,6.383c-1.118,4.128 -2.181,8.05 -3.188,11.768c-2.264,7.37 -4.183,13.951 -6.258,19.635c-1.007,2.85 -1.871,5.531 -2.81,7.976c-0.955,2.438 -1.838,4.69 -2.649,6.759c-0.821,2.065 -1.535,3.959 -2.246,5.648c-0.748,1.674 -1.418,3.172 -2.01,4.498c-1.191,2.648 -2.085,4.6 -2.7,5.883c-0.615,1.282 -0.95,1.895 -1.024,1.863c-0.074,-0.032 0.118,-0.707 0.579,-2.053c0.461,-1.346 1.191,-3.362 2.195,-6.076c0.505,-1.355 1.075,-2.886 1.712,-4.596c0.605,-1.722 1.207,-3.649 1.908,-5.746c0.693,-2.099 1.447,-4.382 2.263,-6.854c0.802,-2.475 1.52,-5.188 2.372,-8.065c1.764,-5.738 3.336,-12.372 5.214,-19.774c0.817,-3.732 1.679,-7.669 2.586,-11.812c0.483,-2.063 0.834,-4.213 1.266,-6.397c0.417,-2.188 0.843,-4.428 1.28,-6.721c0.463,-2.286 0.818,-4.652 1.226,-7.061c0.4,-2.41 0.809,-4.873 1.228,-7.391c0.792,-5.043 1.524,-10.321 2.324,-15.809c1.44,-11.01 2.92,-22.908 4.246,-35.775c1.376,-12.856 2.53,-24.826 3.665,-35.909c1.133,-11.085 2.216,-21.285 3.355,-30.618c1.113,-9.328 2.242,-17.805 3.511,-25.45c1.251,-7.642 2.648,-14.435 4.131,-20.372c1.481,-5.938 3.035,-11.022 4.583,-15.267c0.74,-2.131 1.548,-4.036 2.244,-5.762c0.759,-1.708 1.441,-3.231 2.107,-4.553c0.681,-1.318 1.301,-2.448 1.862,-3.398c0.575,-0.945 1.11,-1.701 1.566,-2.288c0.919,-1.175 1.58,-1.651 1.988,-1.477z" fill="#31353E"/>
    </g>
    <g stroke="null" id="svg_114">
     <path stroke="null" id="svg_115" d="m33405.14057,32961.7829c1.236,-0.241 2.491,-0.186 3.613,-0.542c0.265,-0.084 0.546,-0.195 0.789,-0.327c0.094,-0.056 0.193,-0.114 0.297,-0.176c0.078,-0.049 0.154,-0.102 0.226,-0.161c0.062,-0.054 0.22,-0.161 0.318,-0.252c0.12,-0.112 0.244,-0.228 0.374,-0.349c0.178,-0.169 0.226,-0.238 0.317,-0.335c0.096,-0.091 0.183,-0.182 0.26,-0.273c0.688,-0.726 1.453,-1.278 2.773,-1.672c0.277,-0.109 0.825,-0.163 1.291,-0.221c0.483,-0.055 0.978,-0.097 1.486,-0.127c1.009,-0.035 2.099,-0.129 3.229,-0.126c2.268,-0.015 4.787,0.017 7.583,0.142c2.804,0.078 5.893,0.199 9.325,0.263c3.43,0.031 7.2,-0.023 11.335,-0.327c4.133,-0.309 8.634,-0.879 13.462,-1.959c9.652,-2.145 17.816,-5.882 24.302,-9.857c3.252,-1.987 6.123,-4.024 8.577,-6.047c2.495,-1.988 4.56,-3.969 6.361,-5.761c0.884,-0.909 1.673,-1.792 2.427,-2.604c0.738,-0.823 1.372,-1.623 1.98,-2.345c1.208,-1.451 2.085,-2.734 2.843,-3.723c1.387,-2.049 2.062,-3.052 2.206,-2.983c0.144,0.069 -0.243,1.197 -1.066,3.583c-0.478,1.159 -1.009,2.667 -1.796,4.44c-0.398,0.883 -0.803,1.867 -1.296,2.906c-0.509,1.027 -1.036,2.156 -1.645,3.346c-1.251,2.356 -2.713,5.046 -4.613,7.933c-1.861,2.92 -4.147,6.046 -6.935,9.333c-2.789,3.284 -6.099,6.721 -10.104,10.102c-4.001,3.374 -8.712,6.702 -14.224,9.64c-5.506,2.938 -10.982,5.07 -16.206,6.537c-5.227,1.466 -10.202,2.28 -14.786,2.593c-4.588,0.282 -8.781,0.093 -12.512,-0.422c-3.728,-0.561 -6.996,-1.395 -9.769,-2.473c-1.385,-0.55 -2.662,-1.074 -3.802,-1.72c-0.572,-0.311 -1.116,-0.624 -1.631,-0.939c-0.547,-0.348 -1.071,-0.681 -1.573,-1c-2.306,-1.491 -4.39,-3.436 -5.66,-5.687c-0.634,-1.111 -1.044,-2.316 -1.169,-3.376c-0.128,-1.086 0.012,-2.031 0.338,-2.765c0.315,-0.735 0.798,-1.25 1.337,-1.603c0.535,-0.355 1.124,-0.546 1.738,-0.666z" fill="#31353E"/>
    </g>
    <g stroke="null" id="svg_116">
     <path stroke="null" id="svg_117" d="m33447.77557,32914.0979c-0.018,0.078 -0.117,0.134 -0.342,0.328c-0.245,0.21 -0.592,0.508 -1.059,0.908c-0.484,0.4 -1.13,0.965 -1.893,1.444c-0.754,0.458 -1.65,0.893 -2.58,0.997c-0.908,0.052 -1.895,-0.065 -3.002,-0.247c-1.068,-0.257 -2.281,-0.552 -3.494,-1.123c-1.243,-0.521 -2.511,-1.264 -3.816,-2.175c-0.634,-0.48 -1.279,-1 -1.929,-1.56c-0.627,-0.589 -1.248,-1.231 -1.88,-1.9c-0.592,-0.713 -1.152,-1.404 -1.657,-2.093c-0.484,-0.71 -0.918,-1.414 -1.324,-2.088c-0.76,-1.396 -1.362,-2.718 -1.785,-3.984c-0.47,-1.231 -0.7,-2.447 -0.945,-3.48c-0.175,-1.08 -0.308,-2.021 -0.38,-2.855c-0.051,-0.846 -0.082,-1.562 -0.1,-2.165c-0.006,-0.608 0.023,-1.113 0.033,-1.503c0.035,-0.786 0.062,-1.152 0.208,-1.208c0.147,-0.056 0.433,0.198 1.006,0.706c0.286,0.254 0.634,0.574 1.069,0.942c0.448,0.349 0.973,0.759 1.578,1.232c0.606,0.454 1.329,0.929 2.073,1.46c0.811,0.492 1.605,1.071 2.548,1.617c0.897,0.58 1.905,1.144 2.913,1.779c0.526,0.299 1.061,0.608 1.583,0.95c0.558,0.306 1.109,0.64 1.664,0.994c0.578,0.328 1.12,0.65 1.621,0.982c0.526,0.299 1.013,0.605 1.467,0.919c0.943,0.574 1.757,1.176 2.519,1.718c0.736,0.595 1.438,1.077 2.022,1.663c0.612,0.515 1.142,1.058 1.601,1.611c0.45,0.57 0.749,1.408 1.01,2.21c0.263,0.787 0.476,1.559 0.667,2.146c0.186,0.604 0.342,1.042 0.451,1.313c0.108,0.285 0.172,0.384 0.153,0.462z" fill="#31353E"/>
    </g>
   </g>
  </g>
 </g>
</svg>